<?xml version="1.0" standalone="no"?><!DOCTYPE svg PUBLIC "-//W3C//DTD SVG 1.1//EN" "http://www.w3.org/Graphics/SVG/1.1/DTD/svg11.dtd"><svg t="1729309367577" class="icon" viewBox="0 0 1024 1024" version="1.1" xmlns="http://www.w3.org/2000/svg" p-id="905" xmlns:xlink="http://www.w3.org/1999/xlink" width="200" height="200"><path d="M853.333333 0H170.666667C76.231111 0 0 76.231111 0 170.666667v682.666666c0 94.435556 76.231111 170.666667 170.666667 170.666667h682.666666-56.888889l1.137778-1.137778c14.791111 0 29.582222-5.688889 40.96-16.497778l169.528889-169.528888c11.946667-11.946667 17.066667-28.444444 15.928889-44.373334V170.666667c0-94.435556-76.231111-170.666667-170.666667-170.666667zM284.444444 227.555556h455.111112c31.288889 0 56.888889 25.6 56.888888 56.888888s-25.6 56.888889-56.888888 56.888889H284.444444c-31.288889 0-56.888889-25.6-56.888888-56.888889s25.6-56.888889 56.888888-56.888888zM227.555556 512c0-31.288889 25.6-56.888889 56.888888-56.888889h455.111112c31.288889 0 56.888889 25.6 56.888888 56.888889s-25.6 56.888889-56.888888 56.888889H284.444444c-31.288889 0-56.888889-25.6-56.888888-56.888889z m625.777777 284.444444h-56.888889v56.888889c0 31.288889-25.6 56.888889-56.888888 56.888889s-56.888889-25.6-56.888889-56.888889v-113.777777c0-31.288889 25.6-56.888889 56.888889-56.888889h113.777777c31.288889 0 56.888889 25.6 56.888889 56.888889s-25.6 56.888889-56.888889 56.888888z" fill="#ffffff" p-id="906"></path></svg>