<?xml version="1.0" standalone="no"?><!DOCTYPE svg PUBLIC "-//W3C//DTD SVG 1.1//EN" "http://www.w3.org/Graphics/SVG/1.1/DTD/svg11.dtd"><svg t="1729428582959" class="icon" viewBox="0 0 1024 1024" version="1.1" xmlns="http://www.w3.org/2000/svg" p-id="6743" xmlns:xlink="http://www.w3.org/1999/xlink" width="200" height="200"><path d="M869.2224 91.2896A51.2 51.2 0 0 0 819.2 51.2H204.8a51.2 51.2 0 0 0-50.0224 40.0896L61.44 512h217.0368a153.088 153.088 0 0 1 140.3904 92.16 101.2224 101.2224 0 0 0 186.2656 0 153.088 153.088 0 0 1 140.3904-92.16H962.56l-93.3376-420.7104zM358.4 153.6h307.2a51.2 51.2 0 1 1 0 102.4H358.4a51.2 51.2 0 0 1 0-102.4z m358.4 256H307.2a51.2 51.2 0 0 1 0-102.4h409.6a51.2 51.2 0 1 1 0 102.4z" fill="#ffffff" p-id="6744"></path><path d="M102.4 972.8h819.2a51.2 51.2 0 0 0 51.2-51.2v-307.2h-227.2768a50.688 50.688 0 0 0-46.4896 30.72 203.6736 203.6736 0 0 1-374.0672 0 50.688 50.688 0 0 0-46.4896-30.72H51.2v307.2a51.2 51.2 0 0 0 51.2 51.2z" fill="#ffffff" p-id="6745"></path></svg>