<?xml version="1.0" encoding="utf-8"?>
<!-- Generator: Adobe Illustrator 25.0.0, SVG Export Plug-In . SVG Version: 6.00 Build 0)  -->
<svg version="1.1" id="图层_1" xmlns="http://www.w3.org/2000/svg" xmlns:xlink="http://www.w3.org/1999/xlink" x="0px" y="0px"
	 viewBox="0 0 226.8 170.1" style="enable-background:new 0 0 226.8 170.1;" xml:space="preserve">
<style type="text/css">
	.st0{fill:none;stroke:#2C3E50;stroke-width:2;stroke-miterlimit:10;}
	.st1{fill:none;stroke:#607EA6;stroke-miterlimit:10;}
	.st2{fill:none;stroke:#E53935;stroke-miterlimit:10;}
	.st3{fill:#E53935;}
	.st4{fill:none;stroke:#F1C40F;stroke-miterlimit:10;}
	.st5{fill:#F1C40F;}
	.st6{fill:#2C3E50;stroke:#2C3E50;stroke-miterlimit:10;}
	.st7{fill:#607EA6;stroke:#2C3E50;stroke-miterlimit:10;}
	.st8{fill:#ACCAF2;stroke:#607EA6;stroke-width:0.5;stroke-miterlimit:10;}
	.st9{fill:none;stroke:#757575;stroke-width:0.5;stroke-miterlimit:10;}
	.st10{fill:none;}
	.st11{font-family:'ArialMT';}
	.st12{font-size:8px;}
</style>
<g id="图层_2_1_">
	<line class="st0" x1="129.3" y1="85.1" x2="151.6" y2="40.6"/>
	<line class="st0" x1="129.3" y1="85.1" x2="107.3" y2="128.6"/>
	<line class="st0" x1="173.2" y1="84.7" x2="129.3" y2="85.1"/>
	<line class="st0" x1="74.7" y1="84.4" x2="129.3" y2="85.1"/>
	<line class="st1" x1="74.7" y1="84.4" x2="41.5" y2="106.9"/>
	<line class="st1" x1="41.5" y1="62.9" x2="74.7" y2="84.4"/>
	<line class="st1" x1="72" y1="125.5" x2="107.3" y2="128.6"/>
	<line class="st1" x1="81.7" y1="153.1" x2="107.3" y2="128.6"/>
	<line class="st1" x1="108.9" y1="163.5" x2="107.3" y2="128.6"/>
	<line class="st1" x1="141.8" y1="151.5" x2="107.3" y2="128.6"/>
	<line class="st1" x1="118.3" y1="18.7" x2="151.6" y2="40.6"/>
	<line class="st1" x1="151.3" y1="6.7" x2="151.6" y2="40.6"/>
	<line class="st1" x1="178.4" y1="17.1" x2="151.6" y2="40.6"/>
	<line class="st1" x1="188.2" y1="44.7" x2="151.6" y2="40.6"/>
	<line class="st1" x1="207.2" y1="62.9" x2="173.2" y2="84.7"/>
	<line class="st1" x1="207.2" y1="105.5" x2="173.2" y2="84.7"/>
	<line class="st1" x1="107.3" y1="128.6" x2="74.7" y2="84.4"/>
	<g>
		<g>
			<line class="st2" x1="83.9" y1="77.8" x2="113" y2="78.3"/>
			<g>
				<polygon class="st3" points="111.8,80 118.3,78.3 111.9,76.5 				"/>
			</g>
		</g>
	</g>
	<g>
		<g>
			<line class="st4" x1="43.4" y1="100.1" x2="59.8" y2="88.9"/>
			<g>
				<polygon class="st5" points="59.8,91 64.2,85.9 57.8,88.2 				"/>
			</g>
		</g>
	</g>
	<g>
		<g>
			<line class="st4" x1="96.5" y1="121.8" x2="80.5" y2="100.1"/>
			<g>
				<polygon class="st5" points="82.6,100 77.3,95.8 79.8,102.1 				"/>
			</g>
		</g>
	</g>
	<g>
		<g>
			<line class="st2" x1="117.2" y1="125.9" x2="129.6" y2="101.2"/>
			<g>
				<polygon class="st3" points="130.6,103.1 132,96.5 127.5,101.5 				"/>
			</g>
		</g>
	</g>
</g>
<g id="图层_1_1_">
	<circle class="st6" cx="129.3" cy="85.1" r="8.7"/>
	<circle class="st6" cx="18" cy="11.4" r="3.5"/>
	<circle class="st7" cx="107.3" cy="128.6" r="7"/>
	<circle class="st7" cx="151.6" cy="40.6" r="7"/>
	<circle class="st7" cx="74.7" cy="84.4" r="7"/>
	<circle class="st7" cx="173.2" cy="84.7" r="7"/>
	<circle class="st8" cx="151.3" cy="6.7" r="5.2"/>
	<circle class="st8" cx="188.2" cy="44.7" r="5.2"/>
	<circle class="st8" cx="118.3" cy="18.7" r="5.2"/>
	<circle class="st8" cx="178.4" cy="17.1" r="5.2"/>
	<circle class="st8" cx="108.9" cy="163.5" r="5.2"/>
	<circle class="st8" cx="72" cy="125.5" r="5.2"/>
	<circle class="st8" cx="141.8" cy="151.5" r="5.2"/>
	<circle class="st8" cx="81.7" cy="153.1" r="5.2"/>
	<circle class="st8" cx="41.5" cy="62.9" r="5.2"/>
	<circle class="st8" cx="207.2" cy="63.6" r="5.2"/>
	<circle class="st8" cx="207.2" cy="105.5" r="5.2"/>
	<circle class="st8" cx="41.5" cy="106.9" r="5.2"/>
</g>
<g id="图层_3">
	<rect x="9.3" y="4.3" class="st9" width="87.3" height="40.3"/>
	<rect x="24.5" y="6.6" class="st10" width="67.2" height="9.5"/>
	<text transform="matrix(1 0 0 1 29.8811 14.7988)" class="st11 st12">Node of interest</text>
	<rect x="27.5" y="18.6" class="st10" width="67.2" height="9.5"/>
	<text transform="matrix(1 0 0 1 29.3208 26.7995)" class="st11 st12">1-order neighbour</text>
	<rect x="27.5" y="30.6" class="st10" width="67.2" height="9.5"/>
	<text transform="matrix(1 0 0 1 29.3208 38.8003)" class="st11 st12">2-order neighbour</text>
	<g>
		<g>
			<line class="st2" x1="12.3" y1="23.9" x2="19.8" y2="23.9"/>
			<g>
				<polygon class="st3" points="18.6,25.6 25.1,23.9 18.6,22.1 				"/>
			</g>
		</g>
	</g>
	<g>
		<g>
			<line class="st4" x1="12.6" y1="36.1" x2="19.5" y2="36.1"/>
			<g>
				<polygon class="st5" points="18.3,37.9 24.8,36.1 18.3,34.4 				"/>
			</g>
		</g>
	</g>
</g>
</svg>
