<?xml version="1.0" encoding="utf-8"?>
<!-- Generator: Adobe Illustrator 25.0.0, SVG Export Plug-In . SVG Version: 6.00 Build 0)  -->
<!DOCTYPE svg PUBLIC "-//W3C//DTD SVG 1.1//EN" "http://www.w3.org/Graphics/SVG/1.1/DTD/svg11.dtd" [
	<!ENTITY ns_extend "http://ns.adobe.com/Extensibility/1.0/">
	<!ENTITY ns_ai "http://ns.adobe.com/AdobeIllustrator/10.0/">
	<!ENTITY ns_graphs "http://ns.adobe.com/Graphs/1.0/">
	<!ENTITY ns_vars "http://ns.adobe.com/Variables/1.0/">
	<!ENTITY ns_imrep "http://ns.adobe.com/ImageReplacement/1.0/">
	<!ENTITY ns_sfw "http://ns.adobe.com/SaveForWeb/1.0/">
	<!ENTITY ns_custom "http://ns.adobe.com/GenericCustomNamespace/1.0/">
	<!ENTITY ns_adobe_xpath "http://ns.adobe.com/XPath/1.0/">
]>
<svg version="1.1" id="图层_1" xmlns:x="&ns_extend;" xmlns:i="&ns_ai;" xmlns:graph="&ns_graphs;"
	 xmlns="http://www.w3.org/2000/svg" xmlns:xlink="http://www.w3.org/1999/xlink" x="0px" y="0px" viewBox="0 0 481.9 453.5"
	 style="enable-background:new 0 0 481.9 453.5;" xml:space="preserve">
<style type="text/css">
	.st0{fill:#FFFFFF;}
	.st1{clip-path:url(#SVGID_2_);fill:none;stroke:#757575;stroke-width:0.5;stroke-linejoin:round;stroke-dasharray:1.85,0.8;}
	.st2{clip-path:url(#SVGID_4_);fill:none;stroke:#757575;stroke-width:0.5;stroke-linejoin:round;stroke-dasharray:1.85,0.8;}
	.st3{clip-path:url(#SVGID_6_);}
	.st4{fill:#3498DB;fill-opacity:0.7;stroke:#3498DB;stroke-linejoin:round;stroke-opacity:0.7;}
	.st5{clip-path:url(#SVGID_8_);}
	.st6{fill:#F1C40F;fill-opacity:0.7;stroke:#F1C40F;stroke-linejoin:round;stroke-opacity:0.7;}
	.st7{clip-path:url(#SVGID_10_);}
	.st8{fill:#F0788C;fill-opacity:0.7;stroke:#F0788C;stroke-linejoin:round;stroke-opacity:0.7;}
	.st9{clip-path:url(#SVGID_12_);}
	.st10{fill:#C08AFB;fill-opacity:0.7;stroke:#C08AFB;stroke-linejoin:round;stroke-opacity:0.7;}
	.st11{stroke:#000000;stroke-width:0.8;stroke-linejoin:round;}
	.st12{fill:none;stroke:#000000;stroke-width:0.8;stroke-linecap:square;}
	.st13{fill:none;}
	.st14{font-family:'ArialMT';}
	.st15{font-size:14px;}
	.st16{clip-path:url(#SVGID_14_);fill:none;stroke:#757575;stroke-width:0.5;stroke-linejoin:round;stroke-dasharray:1.85,0.8;}
	.st17{clip-path:url(#SVGID_16_);fill:none;stroke:#757575;stroke-width:0.5;stroke-linejoin:round;stroke-dasharray:1.85,0.8;}
	.st18{clip-path:url(#SVGID_18_);}
	.st19{clip-path:url(#SVGID_20_);}
	.st20{clip-path:url(#SVGID_22_);}
	.st21{clip-path:url(#SVGID_24_);}
	.st22{clip-path:url(#SVGID_26_);fill:none;stroke:#757575;stroke-width:0.5;stroke-linejoin:round;stroke-dasharray:1.85,0.8;}
	.st23{clip-path:url(#SVGID_28_);fill:none;stroke:#757575;stroke-width:0.5;stroke-linejoin:round;stroke-dasharray:1.85,0.8;}
	.st24{clip-path:url(#SVGID_30_);}
	.st25{clip-path:url(#SVGID_32_);}
	.st26{clip-path:url(#SVGID_34_);}
	.st27{clip-path:url(#SVGID_36_);fill:none;stroke:#757575;stroke-width:0.5;stroke-linejoin:round;stroke-dasharray:1.85,0.8;}
	.st28{clip-path:url(#SVGID_38_);fill:none;stroke:#757575;stroke-width:0.5;stroke-linejoin:round;stroke-dasharray:1.85,0.8;}
	.st29{clip-path:url(#SVGID_40_);}
	.st30{clip-path:url(#SVGID_42_);}
	.st31{clip-path:url(#SVGID_44_);}
</style>
<metadata>
	<sfw  xmlns="&ns_sfw;">
		<slices></slices>
		<sliceSourceBounds  bottomLeftOrigin="true" height="453.1" width="481" x="0.6" y="-453.7"></sliceSourceBounds>
	</sfw>
</metadata>
<g>
	<g id="figure_1">
		<g id="patch_1">
			<path class="st0" d="M0.6,216.6h216V0.6H0.6V216.6z"/>
		</g>
		<g id="axes_1">
			<g id="patch_2">
				<path class="st0" d="M27.6,192.8H195V26.5H27.6V192.8z"/>
			</g>
			<g id="LineCollection_1">
				<g>
					<g>
						<defs>
							<rect id="SVGID_1_" x="27.6" y="26.5" width="167.4" height="166.3"/>
						</defs>
						<clipPath id="SVGID_2_">
							<use xlink:href="#SVGID_1_"  style="overflow:visible;"/>
						</clipPath>
						<path class="st1" d="M27.6,109.7H195"/>
					</g>
				</g>
			</g>
			<g id="LineCollection_2">
				<g>
					<g>
						<defs>
							<rect id="SVGID_3_" x="27.6" y="26.5" width="167.4" height="166.3"/>
						</defs>
						<clipPath id="SVGID_4_">
							<use xlink:href="#SVGID_3_"  style="overflow:visible;"/>
						</clipPath>
						<path class="st2" d="M111.3,192.8V26.5"/>
					</g>
				</g>
			</g>
			<g id="PathCollection_1">
				<g>
					<g>
						<defs>
							<rect id="SVGID_5_" x="27.6" y="26.5" width="167.4" height="166.3"/>
						</defs>
						<clipPath id="SVGID_6_">
							<use xlink:href="#SVGID_5_"  style="overflow:visible;"/>
						</clipPath>
						<g class="st3">
							<g>
								<path id="C0_0_f270c09978" class="st4" d="M69.9,162.9c1.9,0,3.7-0.7,5-2.1c1.3-1.3,2.1-3.1,2.1-5s-0.7-3.7-2.1-5
									c-1.3-1.3-3.1-2.1-5-2.1s-3.7,0.7-5,2.1c-1.3,1.3-2.1,3.1-2.1,5s0.7,3.7,2.1,5C66.2,162.1,68,162.9,69.9,162.9z"/>
							</g>
						</g>
					</g>
				</g>
				<g>
					<g>
						<defs>
							<rect id="SVGID_7_" x="27.6" y="26.5" width="167.4" height="166.3"/>
						</defs>
						<clipPath id="SVGID_8_">
							<use xlink:href="#SVGID_7_"  style="overflow:visible;"/>
						</clipPath>
						<g class="st5">
							<g>
								<path id="C0_0_f270c09978_1_" class="st6" d="M83.2,107.1c1.9,0,3.7-0.7,5-2.1c1.3-1.3,2.1-3.1,2.1-5s-0.7-3.7-2.1-5
									c-1.3-1.3-3.1-2.1-5-2.1s-3.7,0.7-5,2.1c-1.3,1.3-2.1,3.1-2.1,5s0.7,3.7,2.1,5C79.6,106.3,81.4,107.1,83.2,107.1z"/>
							</g>
						</g>
					</g>
				</g>
				<g>
					<g>
						<defs>
							<rect id="SVGID_9_" x="27.6" y="26.5" width="167.4" height="166.3"/>
						</defs>
						<clipPath id="SVGID_10_">
							<use xlink:href="#SVGID_9_"  style="overflow:visible;"/>
						</clipPath>
						<g class="st7">
							<g>
								<path id="C0_0_f270c09978_2_" class="st8" d="M178.4,143.4c1.9,0,3.7-0.7,5-2.1c1.3-1.3,2.1-3.1,2.1-5s-0.7-3.7-2.1-5
									c-1.3-1.3-3.1-2.1-5-2.1s-3.7,0.7-5,2.1c-1.3,1.3-2.1,3.1-2.1,5s0.7,3.7,2.1,5C174.7,142.7,176.5,143.4,178.4,143.4z"/>
							</g>
						</g>
					</g>
				</g>
				<g>
					<g>
						<defs>
							<rect id="SVGID_11_" x="27.6" y="26.5" width="167.4" height="166.3"/>
						</defs>
						<clipPath id="SVGID_12_">
							<use xlink:href="#SVGID_11_"  style="overflow:visible;"/>
						</clipPath>
						<g class="st9">
							<g>
								<path id="C0_0_f270c09978_3_" class="st10" d="M113.7,53.6c1.9,0,3.7-0.7,5-2.1c1.3-1.3,2.1-3.1,2.1-5s-0.7-3.7-2.1-5
									c-1.3-1.3-3.1-2.1-5-2.1s-3.7,0.7-5,2.1c-1.3,1.3-2.1,3.1-2.1,5s0.7,3.7,2.1,5C110,52.9,111.8,53.6,113.7,53.6z"/>
							</g>
						</g>
					</g>
				</g>
			</g>
			<g id="matplotlib.axis_1">
				<g id="xtick_1">
					<g id="line2d_1">
						<g>
							<g>
								<path id="m6ff084f456" class="st11" d="M27.6,192.8v-2"/>
							</g>
						</g>
					</g>
					<g id="text_1">
						<g transform="translate(19.628906 203.338437)scale(0.1 -0.1)">
							<g>
								<path id="DejaVuSans-2212" d="M16.8,29.3h62.6V21H16.8V29.3z"/>
							</g>
							<g>
								<path id="DejaVuSans-32" d="M109.2,2.1h34.4v-8.3H97.3v8.3c3.7,3.9,8.8,9.1,15.3,15.6s10.5,10.7,12.2,12.6
									c3.2,3.5,5.4,6.5,6.6,9c1.3,2.5,1.9,4.9,1.9,7.2c0,3.9-1.4,7-4.1,9.5c-2.7,2.4-6.3,3.7-10.6,3.7c-3.1,0-6.4-0.5-9.8-1.6
									s-7.1-2.7-11-4.9v10c4,1.6,7.7,2.8,11.1,3.6c3.5,0.8,6.6,1.2,9.5,1.2c7.6,0,13.6-1.9,18.1-5.7c4.5-3.8,6.7-8.8,6.7-15.1
									c0-3-0.6-5.8-1.7-8.5c-1.1-2.7-3.2-5.8-6.1-9.5c-0.8-0.9-3.4-3.7-7.8-8.2C123.3,16.5,117.1,10.2,109.2,2.1z"/>
							</g>
						</g>
					</g>
				</g>
				<g id="xtick_2">
					<g id="line2d_2">
						<g>
							<g>
								<path id="m6ff084f456_1_" class="st11" d="M69.4,192.8v-2"/>
							</g>
						</g>
					</g>
					<g id="text_2">
						<g transform="translate(61.478906 203.338437)scale(0.1 -0.1)">
							<g>
								<path id="DejaVuSans-2212_1_" d="M16.8,29.3h62.6V21H16.8V29.3z"/>
							</g>
							<g>
								<path id="DejaVuSans-31" d="M102.4,2.1h16.1v55.6L101,54.2v9l17.4,3.5h9.9V2.1h16.1v-8.3h-42V2.1z"/>
							</g>
						</g>
					</g>
				</g>
				<g id="xtick_3">
					<g id="line2d_3">
						<g>
							<g>
								<path id="m6ff084f456_2_" class="st11" d="M111.3,192.8v-2"/>
							</g>
						</g>
					</g>
					<g id="text_3">
						<g transform="translate(107.51875 203.338437)scale(0.1 -0.1)">
							<g>
								<path id="DejaVuSans-30" d="M38,60.2c-5.1,0-8.9-2.5-11.5-7.5s-3.8-12.5-3.8-22.5S24,12.7,26.5,7.7c2.6-5,6.4-7.5,11.5-7.5
									s8.9,2.5,11.5,7.5c2.6,5,3.8,12.5,3.8,22.5S52,47.7,49.5,52.7C46.9,57.7,43.1,60.2,38,60.2z M38,68c8.2,0,14.4-3.2,18.7-9.7
									s6.5-15.8,6.5-28.1S61,8.6,56.7,2.1S46.2-7.6,38-7.6S23.6-4.4,19.3,2.1s-6.5,15.8-6.5,28.1s2.2,21.7,6.5,28.1
									C23.6,64.8,29.8,68,38,68z"/>
							</g>
						</g>
					</g>
				</g>
				<g id="xtick_4">
					<g id="line2d_4">
						<g>
							<g>
								<path id="m6ff084f456_3_" class="st11" d="M153.2,192.8v-2"/>
							</g>
						</g>
					</g>
					<g id="text_4">
						<g transform="translate(149.36875 203.338437)scale(0.1 -0.1)">
							<g>
								<path id="DejaVuSans-31_1_" d="M18.6,2.1h16.1v55.6l-17.5-3.5v9l17.4,3.5h9.9V2.1h16.1v-8.3h-42C18.6-6.2,18.6,2.1,18.6,2.1
									z"/>
							</g>
						</g>
					</g>
				</g>
				<g id="xtick_5">
					<g id="line2d_5">
						<g>
							<g>
								<path id="m6ff084f456_4_" class="st11" d="M195,192.8v-2"/>
							</g>
						</g>
					</g>
					<g id="text_5">
						<g transform="translate(191.21875 203.338437)scale(0.1 -0.1)">
							<g>
								<path id="DejaVuSans-32_1_" d="M25.4,2.1h34.4v-8.3H13.5v8.3c3.7,3.9,8.8,9.1,15.3,15.6S39.3,28.4,41,30.3
									c3.2,3.5,5.4,6.5,6.6,9c1.3,2.5,1.9,4.9,1.9,7.2c0,3.9-1.4,7-4.1,9.5c-2.7,2.4-6.3,3.7-10.6,3.7c-3.1,0-6.4-0.5-9.8-1.6
									s-7.1-2.7-11-4.9v10c4,1.6,7.7,2.8,11.1,3.6c3.5,0.8,6.6,1.2,9.5,1.2c7.6,0,13.6-1.9,18.1-5.7c4.5-3.8,6.7-8.8,6.7-15.1
									c0-3-0.6-5.8-1.7-8.5c-1.1-2.7-3.2-5.8-6.1-9.5c-0.8-0.9-3.4-3.7-7.8-8.2C39.5,16.5,33.3,10.2,25.4,2.1z"/>
							</g>
						</g>
					</g>
				</g>
			</g>
			<g id="matplotlib.axis_2">
				<g id="ytick_1">
					<g id="line2d_6">
						<g>
							<g>
								<path id="ma88ef600cc" class="st11" d="M27.6,192.8h2"/>
							</g>
						</g>
					</g>
					<g id="text_6">
						<g transform="translate(8.757812 196.039219)scale(0.1 -0.1)">
							<g>
								<path id="DejaVuSans-2212_2_" d="M16.8,29.3h62.6V21H16.8V29.3z"/>
							</g>
							<g>
								<path id="DejaVuSans-32_2_" d="M109.2,2.1h34.4v-8.3H97.3v8.3c3.7,3.9,8.8,9.1,15.3,15.6s10.5,10.7,12.2,12.6
									c3.2,3.5,5.4,6.5,6.6,9c1.3,2.5,1.9,4.9,1.9,7.2c0,3.9-1.4,7-4.1,9.5c-2.7,2.4-6.3,3.7-10.6,3.7c-3.1,0-6.4-0.5-9.8-1.6
									s-7.1-2.7-11-4.9v10c4,1.6,7.7,2.8,11.1,3.6c3.5,0.8,6.6,1.2,9.5,1.2c7.6,0,13.6-1.9,18.1-5.7c4.5-3.8,6.7-8.8,6.7-15.1
									c0-3-0.6-5.8-1.7-8.5c-1.1-2.7-3.2-5.8-6.1-9.5c-0.8-0.9-3.4-3.7-7.8-8.2C123.3,16.5,117.1,10.2,109.2,2.1z"/>
							</g>
						</g>
					</g>
				</g>
				<g id="ytick_2">
					<g id="line2d_7">
						<g>
							<g>
								<path id="ma88ef600cc_1_" class="st11" d="M27.6,151.3h2"/>
							</g>
						</g>
					</g>
					<g id="text_7">
						<g transform="translate(8.757812 154.459219)scale(0.1 -0.1)">
							<g>
								<path id="DejaVuSans-2212_3_" d="M16.8,29.3h62.6V21H16.8V29.3z"/>
							</g>
							<g>
								<path id="DejaVuSans-31_2_" d="M102.4,2.1h16.1v55.6L101,54.2v9l17.4,3.5h9.9V2.1h16.1v-8.3h-42V2.1z"/>
							</g>
						</g>
					</g>
				</g>
				<g id="ytick_3">
					<g id="line2d_8">
						<g>
							<g>
								<path id="ma88ef600cc_2_" class="st11" d="M27.6,109.7h2"/>
							</g>
						</g>
					</g>
					<g id="text_8">
						<g transform="translate(17.1375 112.879219)scale(0.1 -0.1)">
							<g>
								<path id="DejaVuSans-30_1_" d="M38,60.2c-5.1,0-8.9-2.5-11.5-7.5s-3.8-12.5-3.8-22.5S24,12.7,26.5,7.7
									c2.6-5,6.4-7.5,11.5-7.5s8.9,2.5,11.5,7.5c2.6,5,3.8,12.5,3.8,22.5S52,47.7,49.5,52.7C46.9,57.7,43.1,60.2,38,60.2z M38,68
									c8.2,0,14.4-3.2,18.7-9.7s6.5-15.8,6.5-28.1S61,8.6,56.7,2.1S46.2-7.6,38-7.6S23.6-4.4,19.3,2.1s-6.5,15.8-6.5,28.1
									s2.2,21.7,6.5,28.1C23.6,64.8,29.8,68,38,68z"/>
							</g>
						</g>
					</g>
				</g>
				<g id="ytick_4">
					<g id="line2d_9">
						<g>
							<g>
								<path id="ma88ef600cc_3_" class="st11" d="M27.6,68.1h2"/>
							</g>
						</g>
					</g>
					<g id="text_9">
						<g transform="translate(17.1375 71.299219)scale(0.1 -0.1)">
							<g>
								<path id="DejaVuSans-31_3_" d="M18.6,2.1h16.1v55.6l-17.5-3.5v9l17.4,3.5h9.9V2.1h16.1v-8.3h-42C18.6-6.2,18.6,2.1,18.6,2.1
									z"/>
							</g>
						</g>
					</g>
				</g>
				<g id="ytick_5">
					<g id="line2d_10">
						<g>
							<g>
								<path id="ma88ef600cc_4_" class="st11" d="M27.6,26.5h2"/>
							</g>
						</g>
					</g>
					<g id="text_10">
						<g transform="translate(17.1375 29.719219)scale(0.1 -0.1)">
							<g>
								<path id="DejaVuSans-32_3_" d="M25.4,2.1h34.4v-8.3H13.5v8.3c3.7,3.9,8.8,9.1,15.3,15.6S39.3,28.4,41,30.3
									c3.2,3.5,5.4,6.5,6.6,9c1.3,2.5,1.9,4.9,1.9,7.2c0,3.9-1.4,7-4.1,9.5c-2.7,2.4-6.3,3.7-10.6,3.7c-3.1,0-6.4-0.5-9.8-1.6
									s-7.1-2.7-11-4.9v10c4,1.6,7.7,2.8,11.1,3.6c3.5,0.8,6.6,1.2,9.5,1.2c7.6,0,13.6-1.9,18.1-5.7c4.5-3.8,6.7-8.8,6.7-15.1
									c0-3-0.6-5.8-1.7-8.5c-1.1-2.7-3.2-5.8-6.1-9.5c-0.8-0.9-3.4-3.7-7.8-8.2C39.5,16.5,33.3,10.2,25.4,2.1z"/>
							</g>
						</g>
					</g>
				</g>
			</g>
			<g id="patch_3">
				<path class="st12" d="M27.6,192.8V26.5"/>
			</g>
			<g id="patch_4">
				<path class="st12" d="M195,192.8V26.5"/>
			</g>
			<g id="patch_5">
				<path class="st12" d="M27.6,192.8H195"/>
			</g>
			<g id="patch_6">
				<path class="st12" d="M27.6,26.5H195"/>
			</g>
			<g id="text_11">
				<g transform="translate(48.293105 156.733964)scale(0.06 -0.06)">
					<g>
						<path id="ArialMT-44" d="M18-10.4v71.6h24.7c5.6,0,9.8-0.3,12.8-1c4.1-0.9,7.6-2.7,10.5-5.1c3.8-3.2,6.6-7.3,8.5-12.2
							c1.9-5,2.8-10.6,2.8-17c0-5.4-0.6-10.3-1.9-14.5S72.5,3.7,70.5,1c-2-2.8-4.2-4.9-6.5-6.5c-2.5-1.7-5.3-2.9-8.7-3.7
							c-3.4-0.8-7.1-1.2-11.5-1.2H18z M27.5-1.9h15.3c4.7,0,8.4,0.4,11.1,1.3s4.8,2.1,6.4,3.7c2.2,2.2,4,5.3,5.2,9
							c1.2,3.7,1.9,8.4,1.9,13.8c0,7.5-1.2,13.2-3.7,17.3s-5.4,6.7-9,8.1c-2.5,1-6.6,1.5-12.2,1.5h-15V-1.9z"/>
					</g>
					<g>
						<path id="ArialMT-4a" d="M85.4,9.9l8.5,1.2c0.2-5.5,1.3-9.2,3.1-11.2c1.8-2,4.3-3,7.6-3c2.4,0,4.4,0.5,6.1,1.6
							s2.9,2.6,3.6,4.4c0.7,1.9,1,4.9,1,9v49.3h9.5V12.4c0-6-0.7-10.6-2.2-13.9c-1.4-3.3-3.7-5.8-6.9-7.5c-3.1-1.7-6.8-2.6-11-2.6
							c-6.3,0-11.1,1.8-14.4,5.4C86.9-2.6,85.3,2.8,85.4,9.9z"/>
					</g>
					<g>
						<path id="ArialMT-46" d="M140.7-10.4v71.6H189v-8.4h-38.8V30.6h33.6v-8.5h-33.6v-32.5H140.7z"/>
					</g>
				</g>
			</g>
			<g id="text_12">
				<g transform="translate(58.63518 100.958149)scale(0.06 -0.06)">
					<g>
						<path id="ArialMT-4d" d="M17.7-10.4v71.6H32l16.9-50.7c1.6-4.7,2.7-8.3,3.4-10.6c0.8,2.6,2.1,6.4,3.8,11.5l17.2,49.8h12.8
							v-71.6H77v59.9L56.1-10.4h-8.5L26.8,50.5v-60.9H17.7z"/>
					</g>
					<g>
						<path id="ArialMT-41" d="M93.5-10.4L121,61.2h10.2l29.2-71.6h-10.8l-8.3,21.7h-29.9l-7.9-21.7H93.5z M114.1,19h24.3l-7.5,19.8
							c-2.3,6-4,11-5.1,14.8c-0.9-4.6-2.2-9.2-3.9-13.7L114.1,19z"/>
					</g>
					<g>
						<path id="ArialMT-4d_1_" d="M167.7-10.4v71.6H182l16.9-50.7c1.6-4.7,2.7-8.3,3.4-10.6c0.8,2.6,2.1,6.4,3.8,11.5l17.2,49.8
							h12.8v-71.6H227v59.9l-20.9-59.9h-8.5l-20.7,60.9v-60.9H167.7z"/>
					</g>
				</g>
			</g>
			<g id="text_13">
				<g transform="translate(157.76044 137.321447)scale(0.06 -0.06)">
					<g>
						<path id="ArialMT-4a_1_" d="M13.2,9.9l8.5,1.2c0.2-5.5,1.3-9.2,3.1-11.2c1.8-2,4.3-3,7.6-3c2.4,0,4.4,0.5,6.1,1.6
							s2.9,2.6,3.6,4.4c0.7,1.9,1,4.9,1,9v49.3h9.5V12.4c0-6-0.7-10.6-2.2-13.9C49-4.8,46.7-7.3,43.5-9c-3.1-1.7-6.8-2.6-11-2.6
							c-6.4,0-11.2,1.8-14.5,5.4S13.1,2.8,13.2,9.9z"/>
					</g>
					<g>
						<path id="ArialMT-4a_2_" d="M63.2,9.9l8.5,1.2c0.2-5.5,1.3-9.2,3.1-11.2s4.3-3,7.6-3c2.4,0,4.4,0.5,6.1,1.6s2.9,2.6,3.6,4.4
							c0.7,1.9,1,4.9,1,9v49.3h9.5V12.4c0-6-0.7-10.6-2.2-13.9C99-4.8,96.7-7.3,93.5-9c-3.1-1.7-6.8-2.6-11-2.6
							c-6.3,0-11.1,1.8-14.4,5.4C64.7-2.6,63.1,2.8,63.2,9.9z"/>
					</g>
					<g>
						<path id="ArialMT-41_1_" d="M110.2-10.4l27.5,71.6h10.2l29.2-71.6h-10.8l-8.4,21.7H128l-7.8-21.7H110.2z M130.8,19h24.3
							l-7.5,19.8c-2.3,6-4,11-5.1,14.8c-0.9-4.6-2.2-9.2-3.9-13.7L130.8,19z"/>
					</g>
				</g>
			</g>
			<g id="text_14">
				<g transform="translate(90.111276 47.510815)scale(0.06 -0.06)">
					<g>
						<path id="ArialMT-53" d="M14.8,12.6l8.9,0.8c0.4-3.6,1.4-6.5,3-8.8s4-4.1,7.2-5.6c3.3-1.4,6.9-2.1,11-2.1
							c3.6,0,6.8,0.5,9.6,1.6s4.8,2.5,6.2,4.4s2,3.9,2,6.1s-0.7,4.2-2,5.9s-3.4,3.1-6.4,4.2c-1.9,0.8-6.2,1.9-12.8,3.5
							c-6.6,1.6-11.2,3.1-13.8,4.5c-3.4,1.8-6,4-7.7,6.7c-1.7,2.7-2.5,5.6-2.5,8.9c0,3.6,1,7,3.1,10.1s5,5.5,9,7.2
							c3.9,1.6,8.3,2.4,13.1,2.4c5.3,0,10-0.9,14-2.6c4.1-1.7,7.2-4.2,9.4-7.5c2.2-3.3,3.3-7.1,3.5-11.3l-9.1-0.7
							c-0.5,4.5-2.1,7.9-5,10.2c-2.8,2.3-7,3.5-12.5,3.5c-5.7,0-9.9-1.1-12.5-3.2c-2.6-2.1-3.9-4.6-3.9-7.6c0-2.6,0.9-4.7,2.8-6.4
							c1.8-1.7,6.6-3.4,14.3-5.1c7.7-1.7,13-3.3,15.8-4.6c4.2-1.9,7.2-4.4,9.2-7.3s3-6.3,3-10.2c0-3.8-1.1-7.4-3.3-10.8
							c-2.2-3.4-5.3-6-9.4-7.9c-4-1.6-8.6-2.5-13.7-2.5c-6.5,0-11.9,0.9-16.3,2.8s-7.8,4.7-10.3,8.5S14.9,7.8,14.8,12.6z"/>
					</g>
					<g>
						<path id="ArialMT-4f" d="M81.8,24.5c0,11.9,3.2,21.2,9.6,27.9s14.6,10.1,24.7,10.1c6.6,0,12.6-1.6,17.9-4.8
							c5.3-3.2,9.3-7.6,12.1-13.2c2.8-5.6,4.2-12.1,4.2-19.2c0-7.3-1.5-13.7-4.4-19.5c-2.9-5.7-7.1-10.1-12.5-13s-11.2-4.4-17.4-4.4
							c-6.7,0-12.7,1.6-18,4.9S88.7,1,85.9,6.6C83.2,12.2,81.8,18.2,81.8,24.5z M91.6,24.3c0-8.6,2.3-15.4,7-20.4
							c4.6-5,10.5-7.4,17.5-7.4c7.1,0,13,2.5,17.6,7.5c4.6,5,6.9,12.1,6.9,21.3c0,5.8-1,10.9-3,15.2s-4.9,7.7-8.7,10.1
							c-3.8,2.4-8,3.6-12.8,3.6c-6.7,0-12.5-2.3-17.3-6.9C94,42.8,91.6,35.1,91.6,24.3z"/>
					</g>
					<g>
						<path id="ArialMT-4e" d="M162.4-10.4v71.6h9.7L209.7,5v56.2h9.1v-71.6h-9.7l-37.6,56.2v-56.2H162.4z"/>
					</g>
				</g>
			</g>
			<g id="text_15">
				<g transform="translate(96.181875 19.92)scale(0.08 -0.08)">
					<g>
						<path id="DejaVuSans-53" d="M61.3,62.7v-9.6c-3.7,1.8-7.3,3.1-10.6,4s-6.5,1.3-9.6,1.3c-5.4,0-9.5-1-12.4-3.1s-4.4-5-4.4-8.9
							c0-3.2,1-5.7,2.9-7.3s5.6-3,11-4l6-1.2c7.4-1.4,12.8-3.9,16.3-7.4s5.2-8.3,5.2-14.2c0-7.1-2.4-12.4-7.1-16.1
							c-4.7-3.6-11.7-5.4-20.8-5.4c-3.4,0-7.1,0.4-11,1.2s-7.9,1.9-12.1,3.5V5.7c4-2.2,7.9-3.9,11.8-5.1c3.8-1.1,7.6-1.7,11.3-1.7
							c5.6,0,10,1.1,13,3.3c3.1,2.2,4.6,5.4,4.6,9.5c0,3.6-1.1,6.4-3.3,8.4s-5.8,3.5-10.8,4.5l-6,1.2c-7.4,1.5-12.7,3.8-16,6.9
							c-3.3,3.1-4.9,7.5-4.9,13c0,6.4,2.3,11.5,6.8,15.2c4.5,3.7,10.8,5.6,18.8,5.6c3.4,0,6.9-0.3,10.5-0.9
							C54,64.9,57.6,63.9,61.3,62.7z"/>
					</g>
					<g>
						<path id="DejaVuSans-65" d="M127.5,21.8v-4.4H86.2c0.4-6.2,2.3-10.9,5.6-14.1s8-4.9,13.9-4.9c3.4,0,6.8,0.4,10,1.3
							c3.2,0.8,6.5,2.1,9.7,3.8V-5c-3.2-1.4-6.5-2.4-9.9-3.1s-6.8-1.1-10.3-1.1c-8.7,0-15.6,2.5-20.7,7.6s-7.6,12-7.6,20.6
							c0,8.9,2.4,16,7.2,21.3c4.8,5.3,11.4,7.9,19.6,7.9c7.4,0,13.2-2.4,17.5-7.1C125.3,36.4,127.5,29.9,127.5,21.8z M118.5,24.4
							c-0.1,4.9-1.4,8.8-4.1,11.8c-2.7,2.9-6.2,4.4-10.7,4.4c-5,0-9-1.4-12-4.2s-4.7-6.8-5.2-12H118.5z"/>
					</g>
					<g>
						<path id="DejaVuSans-61" d="M167.1,19.7c-7.3,0-12.3-0.8-15.1-2.5s-4.2-4.5-4.2-8.5c0-3.2,1.1-5.7,3.2-7.6
							c2.1-1.9,5-2.8,8.6-2.8c5,0,9,1.8,12,5.3s4.5,8.2,4.5,14.1v2H167.1z M185,23.4V-7.8h-9v8.3c-2.1-3.3-4.6-5.8-7.7-7.3
							s-6.8-2.4-11.2-2.4c-5.6,0-10,1.6-13.4,4.7c-3.3,3.1-5,7.4-5,12.6c0,6.1,2.1,10.8,6.2,13.9c4.1,3.1,10.3,4.7,18.4,4.7h12.6
							v0.9c0,4.1-1.4,7.3-4.1,9.6s-6.5,3.4-11.5,3.4c-3.1,0-6.2-0.4-9.1-1.1c-3-0.8-5.8-1.9-8.5-3.4v8.3c3.3,1.3,6.5,2.2,9.6,2.8
							s6.1,1,9,1c7.9,0,13.8-2.1,17.7-6.2C183,38,185,31.7,185,23.4z"/>
					</g>
					<g>
						<path id="DejaVuSans-73" d="M238.4,45.3v-8.5c-2.5,1.3-5.2,2.3-7.9,2.9c-2.7,0.7-5.6,1-8.5,1c-4.5,0-7.8-0.7-10-2
							c-2.2-1.4-3.3-3.4-3.3-6.2c0-2.1,0.8-3.7,2.4-4.9s4.8-2.3,9.6-3.4l3.1-0.7c6.4-1.4,10.9-3.3,13.6-5.8s4-6,4-10.4
							c0-5.1-2-9.1-6-12.1s-9.5-4.4-16.6-4.4c-2.9,0-6,0.3-9.2,0.9s-6.5,1.4-10,2.6v9.3c3.3-1.7,6.6-3,9.8-3.9s6.4-1.3,9.6-1.3
							c4.2,0,7.5,0.7,9.8,2.2c2.3,1.4,3.4,3.5,3.4,6.1c0,2.4-0.8,4.3-2.5,5.6c-1.6,1.3-5.2,2.6-10.8,3.8l-3.1,0.7
							c-5.6,1.2-9.6,3-12.1,5.4s-3.7,5.8-3.7,10c0,5.1,1.8,9.1,5.5,11.9c3.6,2.8,8.8,4.2,15.5,4.2c3.3,0,6.4-0.2,9.4-0.7
							C233.2,47,235.9,46.3,238.4,45.3z"/>
					</g>
					<g>
						<path id="DejaVuSans-6f" d="M276.8,40.6c-4.8,0-8.6-1.9-11.4-5.6s-4.2-8.9-4.2-15.5s1.4-11.7,4.2-15.5
							c2.8-3.8,6.6-5.6,11.5-5.6c4.8,0,8.6,1.9,11.4,5.7s4.2,8.9,4.2,15.4s-1.4,11.6-4.2,15.4C285.4,38.7,281.6,40.6,276.8,40.6z
							 M276.8,48.2c7.8,0,13.9-2.5,18.4-7.6s6.7-12.1,6.7-21.1c0-8.9-2.2-16-6.7-21.1s-10.6-7.6-18.4-7.6s-14,2.5-18.4,7.6
							s-6.7,12.1-6.7,21.1s2.2,16,6.7,21.1C262.8,45.7,268.9,48.2,276.8,48.2z"/>
					</g>
					<g>
						<path id="DejaVuSans-6e" d="M362.3,25.2v-33h-9v32.7c0,5.2-1,9-3,11.6c-2,2.6-5,3.9-9.1,3.9c-4.9,0-8.7-1.5-11.5-4.6
							s-4.2-7.3-4.2-12.6v-31h-9v54.7h9v-8.5c2.2,3.3,4.7,5.7,7.6,7.4c2.9,1.6,6.3,2.4,10.1,2.4c6.3,0,11-1.9,14.2-5.8
							C360.6,38.5,362.3,32.8,362.3,25.2z"/>
					</g>
				</g>
			</g>
		</g>
	</g>
	<rect x="0.6" y="0.6" class="st13" width="18.9" height="17.3"/>
	<text transform="matrix(1 0 0 1 0.6207 12.6375)" class="st14 st15">(a)</text>
</g>
<g>
	<g id="figure_1_1_">
		<g id="patch_1_1_">
			<path class="st0" d="M265.6,216.6h216V0.6h-216V216.6z"/>
		</g>
		<g id="axes_1_1_">
			<g id="patch_2_1_">
				<path class="st0" d="M292.6,192.8H460V26.5H292.6V192.8z"/>
			</g>
			<g id="LineCollection_1_1_">
				<g>
					<g>
						<defs>
							<rect id="SVGID_13_" x="292.6" y="26.5" width="167.4" height="166.3"/>
						</defs>
						<clipPath id="SVGID_14_">
							<use xlink:href="#SVGID_13_"  style="overflow:visible;"/>
						</clipPath>
						<path class="st16" d="M292.6,109.7H460"/>
					</g>
				</g>
			</g>
			<g id="LineCollection_2_1_">
				<g>
					<g>
						<defs>
							<rect id="SVGID_15_" x="292.6" y="26.5" width="167.4" height="166.3"/>
						</defs>
						<clipPath id="SVGID_16_">
							<use xlink:href="#SVGID_15_"  style="overflow:visible;"/>
						</clipPath>
						<path class="st17" d="M376.3,192.8V26.5"/>
					</g>
				</g>
			</g>
			<g id="PathCollection_1_1_">
				<g>
					<g>
						<defs>
							<rect id="SVGID_17_" x="292.6" y="26.5" width="167.4" height="166.3"/>
						</defs>
						<clipPath id="SVGID_18_">
							<use xlink:href="#SVGID_17_"  style="overflow:visible;"/>
						</clipPath>
						<g class="st18">
							<g>
								<path id="C0_0_03e7f95444" class="st4" d="M326.6,134.5c1.9,0,3.7-0.7,5-2.1c1.3-1.3,2.1-3.1,2.1-5c0-1.9-0.7-3.7-2.1-5
									c-1.3-1.3-3.1-2.1-5-2.1c-1.9,0-3.7,0.7-5,2.1c-1.3,1.3-2.1,3.1-2.1,5c0,1.9,0.7,3.7,2.1,5S324.8,134.5,326.6,134.5z"/>
							</g>
						</g>
					</g>
				</g>
				<g>
					<g>
						<defs>
							<rect id="SVGID_19_" x="292.6" y="26.5" width="167.4" height="166.3"/>
						</defs>
						<clipPath id="SVGID_20_">
							<use xlink:href="#SVGID_19_"  style="overflow:visible;"/>
						</clipPath>
						<g class="st19">
							<g>
								<path id="C0_0_03e7f95444_1_" class="st6" d="M354.7,139.9c1.9,0,3.7-0.7,5-2.1c1.3-1.3,2.1-3.1,2.1-5s-0.7-3.7-2.1-5
									c-1.3-1.3-3.1-2.1-5-2.1c-1.9,0-3.7,0.7-5,2.1c-1.3,1.3-2.1,3.1-2.1,5s0.7,3.7,2.1,5C351,139.1,352.8,139.9,354.7,139.9z"/>
							</g>
						</g>
					</g>
				</g>
				<g>
					<g>
						<defs>
							<rect id="SVGID_21_" x="292.6" y="26.5" width="167.4" height="166.3"/>
						</defs>
						<clipPath id="SVGID_22_">
							<use xlink:href="#SVGID_21_"  style="overflow:visible;"/>
						</clipPath>
						<g class="st20">
							<g>
								<path id="C0_0_03e7f95444_2_" class="st8" d="M439.6,147.5c1.9,0,3.7-0.7,5-2.1c1.3-1.3,2.1-3.1,2.1-5s-0.7-3.7-2.1-5
									c-1.3-1.3-3.1-2.1-5-2.1s-3.7,0.7-5,2.1c-1.3,1.3-2.1,3.1-2.1,5s0.7,3.7,2.1,5C436,146.7,437.8,147.5,439.6,147.5z"/>
							</g>
						</g>
					</g>
				</g>
				<g>
					<g>
						<defs>
							<rect id="SVGID_23_" x="292.6" y="26.5" width="167.4" height="166.3"/>
						</defs>
						<clipPath id="SVGID_24_">
							<use xlink:href="#SVGID_23_"  style="overflow:visible;"/>
						</clipPath>
						<g class="st21">
							<g>
								<path id="C0_0_03e7f95444_3_" class="st10" d="M384.2,45.2c1.9,0,3.7-0.7,5-2.1c1.3-1.3,2.1-3.1,2.1-5s-0.7-3.7-2.1-5
									c-1.3-1.3-3.1-2.1-5-2.1c-1.9,0-3.7,0.7-5,2.1c-1.3,1.3-2.1,3.1-2.1,5s0.7,3.7,2.1,5C380.5,44.4,382.3,45.2,384.2,45.2z"/>
							</g>
						</g>
					</g>
				</g>
			</g>
			<g id="matplotlib.axis_1_1_">
				<g id="xtick_1_1_">
					<g id="line2d_1_1_">
						<g>
							<g>
								<path id="m83ef049421" class="st11" d="M292.6,192.8v-2"/>
							</g>
						</g>
					</g>
					<g id="text_1_1_">
						<g transform="translate(19.628906 203.338437)scale(0.1 -0.1)">
							<g>
								<path id="DejaVuSans-2212_7_" d="M2666.7,29.3h62.6V21h-62.6V29.3z"/>
							</g>
							<g>
								<path id="DejaVuSans-32_7_" d="M2759.1,2.1h34.4v-8.3h-46.3v8.3c3.7,3.9,8.8,9.1,15.3,15.6s10.5,10.7,12.2,12.6
									c3.2,3.5,5.4,6.5,6.6,9c1.3,2.5,1.9,4.9,1.9,7.2c0,3.9-1.4,7-4.1,9.5c-2.7,2.4-6.3,3.7-10.6,3.7c-3.1,0-6.4-0.5-9.8-1.6
									c-3.4-1.1-7.1-2.7-11-4.9v10c4,1.6,7.7,2.8,11.1,3.6c3.5,0.8,6.6,1.2,9.5,1.2c7.6,0,13.6-1.9,18.1-5.7
									c4.5-3.8,6.7-8.8,6.7-15.1c0-3-0.6-5.8-1.7-8.5c-1.1-2.7-3.2-5.8-6.1-9.5c-0.8-0.9-3.4-3.7-7.8-8.2
									C2773.2,16.5,2767,10.2,2759.1,2.1z"/>
							</g>
						</g>
					</g>
				</g>
				<g id="xtick_2_1_">
					<g id="line2d_2_1_">
						<g>
							<g>
								<path id="m83ef049421_1_" class="st11" d="M334.4,192.8v-2"/>
							</g>
						</g>
					</g>
					<g id="text_2_1_">
						<g transform="translate(61.478906 203.338437)scale(0.1 -0.1)">
							<g>
								<path id="DejaVuSans-2212_6_" d="M2666.7,29.3h62.6V21h-62.6V29.3z"/>
							</g>
							<g>
								<path id="DejaVuSans-31_7_" d="M2752.3,2.1h16.1v55.6l-17.5-3.5v9l17.4,3.5h9.9V2.1h16.1v-8.3h-42V2.1z"/>
							</g>
						</g>
					</g>
				</g>
				<g id="xtick_3_1_">
					<g id="line2d_3_1_">
						<g>
							<g>
								<path id="m83ef049421_2_" class="st11" d="M376.3,192.8v-2"/>
							</g>
						</g>
					</g>
					<g id="text_3_1_">
						<g transform="translate(107.51875 203.338437)scale(0.1 -0.1)">
							<g>
								<path id="DejaVuSans-30_3_" d="M2687.9,60.2c-5.1,0-8.9-2.5-11.5-7.5c-2.6-5-3.8-12.5-3.8-22.5s1.3-17.5,3.8-22.5
									c2.6-5,6.4-7.5,11.5-7.5c5.1,0,8.9,2.5,11.5,7.5c2.6,5,3.8,12.5,3.8,22.5s-1.3,17.5-3.8,22.5
									C2696.8,57.7,2693,60.2,2687.9,60.2z M2687.9,68c8.2,0,14.4-3.2,18.7-9.7s6.5-15.8,6.5-28.1s-2.2-21.6-6.5-28.1
									s-10.5-9.7-18.7-9.7s-14.4,3.2-18.7,9.7c-4.3,6.5-6.5,15.8-6.5,28.1s2.2,21.7,6.5,28.1C2673.5,64.8,2679.7,68,2687.9,68z"/>
							</g>
						</g>
					</g>
				</g>
				<g id="xtick_4_1_">
					<g id="line2d_4_1_">
						<g>
							<g>
								<path id="m83ef049421_3_" class="st11" d="M418.2,192.8v-2"/>
							</g>
						</g>
					</g>
					<g id="text_4_1_">
						<g transform="translate(149.36875 203.338437)scale(0.1 -0.1)">
							<g>
								<path id="DejaVuSans-31_6_" d="M2668.5,2.1h16.1v55.6l-17.5-3.5v9l17.4,3.5h9.9V2.1h16.1v-8.3h-42
									C2668.5-6.2,2668.5,2.1,2668.5,2.1z"/>
							</g>
						</g>
					</g>
				</g>
				<g id="xtick_5_1_">
					<g id="line2d_5_1_">
						<g>
							<g>
								<path id="m83ef049421_4_" class="st11" d="M460,192.8v-2"/>
							</g>
						</g>
					</g>
					<g id="text_5_1_">
						<g transform="translate(191.21875 203.338437)scale(0.1 -0.1)">
							<g>
								<path id="DejaVuSans-32_6_" d="M2675.3,2.1h34.4v-8.3h-46.3v8.3c3.7,3.9,8.8,9.1,15.3,15.6s10.5,10.7,12.2,12.6
									c3.2,3.5,5.4,6.5,6.6,9c1.3,2.5,1.9,4.9,1.9,7.2c0,3.9-1.4,7-4.1,9.5c-2.7,2.4-6.3,3.7-10.6,3.7c-3.1,0-6.4-0.5-9.8-1.6
									c-3.4-1.1-7.1-2.7-11-4.9v10c4,1.6,7.7,2.8,11.1,3.6c3.5,0.8,6.6,1.2,9.5,1.2c7.6,0,13.6-1.9,18.1-5.7
									c4.5-3.8,6.7-8.8,6.7-15.1c0-3-0.6-5.8-1.7-8.5s-3.2-5.8-6.1-9.5c-0.8-0.9-3.4-3.7-7.8-8.2
									C2689.4,16.5,2683.2,10.2,2675.3,2.1z"/>
							</g>
						</g>
					</g>
				</g>
			</g>
			<g id="matplotlib.axis_2_1_">
				<g id="ytick_1_1_">
					<g id="line2d_6_1_">
						<g>
							<g>
								<path id="m1053203b26" class="st11" d="M292.6,192.8h2"/>
							</g>
						</g>
					</g>
					<g id="text_6_1_">
						<g transform="translate(8.757812 196.039219)scale(0.1 -0.1)">
							<g>
								<path id="DejaVuSans-2212_5_" d="M2666.7,29.3h62.6V21h-62.6V29.3z"/>
							</g>
							<g>
								<path id="DejaVuSans-32_5_" d="M2759.1,2.1h34.4v-8.3h-46.3v8.3c3.7,3.9,8.8,9.1,15.3,15.6s10.5,10.7,12.2,12.6
									c3.2,3.5,5.4,6.5,6.6,9c1.3,2.5,1.9,4.9,1.9,7.2c0,3.9-1.4,7-4.1,9.5c-2.7,2.4-6.3,3.7-10.6,3.7c-3.1,0-6.4-0.5-9.8-1.6
									c-3.4-1.1-7.1-2.7-11-4.9v10c4,1.6,7.7,2.8,11.1,3.6c3.5,0.8,6.6,1.2,9.5,1.2c7.6,0,13.6-1.9,18.1-5.7
									c4.5-3.8,6.7-8.8,6.7-15.1c0-3-0.6-5.8-1.7-8.5c-1.1-2.7-3.2-5.8-6.1-9.5c-0.8-0.9-3.4-3.7-7.8-8.2
									C2773.2,16.5,2767,10.2,2759.1,2.1z"/>
							</g>
						</g>
					</g>
				</g>
				<g id="ytick_2_1_">
					<g id="line2d_7_1_">
						<g>
							<g>
								<path id="m1053203b26_1_" class="st11" d="M292.6,151.3h2"/>
							</g>
						</g>
					</g>
					<g id="text_7_1_">
						<g transform="translate(8.757812 154.459219)scale(0.1 -0.1)">
							<g>
								<path id="DejaVuSans-2212_4_" d="M2666.7,29.3h62.6V21h-62.6V29.3z"/>
							</g>
							<g>
								<path id="DejaVuSans-31_5_" d="M2752.3,2.1h16.1v55.6l-17.5-3.5v9l17.4,3.5h9.9V2.1h16.1v-8.3h-42V2.1z"/>
							</g>
						</g>
					</g>
				</g>
				<g id="ytick_3_1_">
					<g id="line2d_8_1_">
						<g>
							<g>
								<path id="m1053203b26_2_" class="st11" d="M292.6,109.7h2"/>
							</g>
						</g>
					</g>
					<g id="text_8_1_">
						<g transform="translate(17.1375 112.879219)scale(0.1 -0.1)">
							<g>
								<path id="DejaVuSans-30_2_" d="M2687.9,60.2c-5.1,0-8.9-2.5-11.5-7.5c-2.6-5-3.8-12.5-3.8-22.5s1.3-17.5,3.8-22.5
									c2.6-5,6.4-7.5,11.5-7.5c5.1,0,8.9,2.5,11.5,7.5c2.6,5,3.8,12.5,3.8,22.5s-1.3,17.5-3.8,22.5
									C2696.8,57.7,2693,60.2,2687.9,60.2z M2687.9,68c8.2,0,14.4-3.2,18.7-9.7s6.5-15.8,6.5-28.1s-2.2-21.6-6.5-28.1
									s-10.5-9.7-18.7-9.7s-14.4,3.2-18.7,9.7c-4.3,6.5-6.5,15.8-6.5,28.1s2.2,21.7,6.5,28.1C2673.5,64.8,2679.7,68,2687.9,68z"/>
							</g>
						</g>
					</g>
				</g>
				<g id="ytick_4_1_">
					<g id="line2d_9_1_">
						<g>
							<g>
								<path id="m1053203b26_3_" class="st11" d="M292.6,68.1h2"/>
							</g>
						</g>
					</g>
					<g id="text_9_1_">
						<g transform="translate(17.1375 71.299219)scale(0.1 -0.1)">
							<g>
								<path id="DejaVuSans-31_4_" d="M2668.5,2.1h16.1v55.6l-17.5-3.5v9l17.4,3.5h9.9V2.1h16.1v-8.3h-42
									C2668.5-6.2,2668.5,2.1,2668.5,2.1z"/>
							</g>
						</g>
					</g>
				</g>
				<g id="ytick_5_1_">
					<g id="line2d_10_1_">
						<g>
							<g>
								<path id="m1053203b26_4_" class="st11" d="M292.6,26.5h2"/>
							</g>
						</g>
					</g>
					<g id="text_10_1_">
						<g transform="translate(17.1375 29.719219)scale(0.1 -0.1)">
							<g>
								<path id="DejaVuSans-32_4_" d="M2675.3,2.1h34.4v-8.3h-46.3v8.3c3.7,3.9,8.8,9.1,15.3,15.6s10.5,10.7,12.2,12.6
									c3.2,3.5,5.4,6.5,6.6,9c1.3,2.5,1.9,4.9,1.9,7.2c0,3.9-1.4,7-4.1,9.5c-2.7,2.4-6.3,3.7-10.6,3.7c-3.1,0-6.4-0.5-9.8-1.6
									c-3.4-1.1-7.1-2.7-11-4.9v10c4,1.6,7.7,2.8,11.1,3.6c3.5,0.8,6.6,1.2,9.5,1.2c7.6,0,13.6-1.9,18.1-5.7
									c4.5-3.8,6.7-8.8,6.7-15.1c0-3-0.6-5.8-1.7-8.5s-3.2-5.8-6.1-9.5c-0.8-0.9-3.4-3.7-7.8-8.2
									C2689.4,16.5,2683.2,10.2,2675.3,2.1z"/>
							</g>
						</g>
					</g>
				</g>
			</g>
			<g id="patch_3_1_">
				<path class="st12" d="M292.6,192.8V26.5"/>
			</g>
			<g id="patch_4_1_">
				<path class="st12" d="M460,192.8V26.5"/>
			</g>
			<g id="patch_5_1_">
				<path class="st12" d="M292.6,192.8H460"/>
			</g>
			<g id="patch_6_1_">
				<path class="st12" d="M292.6,26.5H460"/>
			</g>
			<g id="text_11_1_">
				<g transform="translate(40.049744 128.372954)scale(0.06 -0.06)">
					<g>
						<path id="ArialMT-44_1_" d="M4434.5-10.4v71.6h24.7c5.6,0,9.8-0.3,12.8-1c4.1-0.9,7.6-2.7,10.5-5.1c3.8-3.2,6.6-7.3,8.5-12.2
							c1.9-5,2.8-10.6,2.8-17c0-5.4-0.6-10.3-1.9-14.5c-1.3-4.2-2.9-7.7-4.9-10.4c-2-2.8-4.2-4.9-6.5-6.5c-2.5-1.7-5.3-2.9-8.7-3.7
							s-7.1-1.2-11.5-1.2H4434.5z M4444-1.9h15.3c4.7,0,8.4,0.4,11.1,1.3c2.7,0.9,4.8,2.1,6.4,3.7c2.2,2.2,4,5.3,5.2,9
							c1.2,3.7,1.9,8.4,1.9,13.8c0,7.5-1.2,13.2-3.7,17.3s-5.4,6.7-9,8.1c-2.5,1-6.6,1.5-12.2,1.5h-15V-1.9z"/>
					</g>
					<g>
						<path id="ArialMT-4a_5_" d="M4501.9,9.9l8.5,1.2c0.2-5.5,1.3-9.2,3.1-11.2c1.8-2,4.3-3,7.6-3c2.4,0,4.4,0.5,6.1,1.6
							c1.7,1.1,2.9,2.6,3.6,4.4c0.7,1.9,1,4.9,1,9v49.3h9.5V12.4c0-6-0.7-10.6-2.2-13.9c-1.4-3.3-3.7-5.8-6.9-7.5
							c-3.1-1.7-6.8-2.6-11-2.6c-6.3,0-11.1,1.8-14.4,5.4C4503.4-2.6,4501.8,2.8,4501.9,9.9z"/>
					</g>
					<g>
						<path id="ArialMT-46_1_" d="M4557.2-10.4v71.6h48.3v-8.4h-38.8V30.6h33.6v-8.5h-33.6v-32.5H4557.2z"/>
					</g>
				</g>
			</g>
			<g id="text_12_1_">
				<g transform="translate(65.115563 133.750805)scale(0.06 -0.06)">
					<g>
						<path id="ArialMT-4d_3_" d="M4434.2-10.4v71.6h14.3l16.9-50.7c1.6-4.7,2.7-8.3,3.4-10.6c0.8,2.6,2.1,6.4,3.8,11.5l17.2,49.8
							h12.8v-71.6h-9.1v59.9l-20.9-59.9h-8.5l-20.8,60.9v-60.9H4434.2z"/>
					</g>
					<g>
						<path id="ArialMT-41_3_" d="M4510-10.4l27.5,71.6h10.2l29.2-71.6h-10.8l-8.3,21.7h-29.9l-7.9-21.7H4510z M4530.6,19h24.3
							l-7.5,19.8c-2.3,6-4,11-5.1,14.8c-0.9-4.6-2.2-9.2-3.9-13.7L4530.6,19z"/>
					</g>
					<g>
						<path id="ArialMT-4d_2_" d="M4584.2-10.4v71.6h14.3l16.9-50.7c1.6-4.7,2.7-8.3,3.4-10.6c0.8,2.6,2.1,6.4,3.8,11.5l17.2,49.8
							h12.8v-71.6h-9.1v59.9l-20.9-59.9h-8.5l-20.7,60.9v-60.9H4584.2z"/>
					</g>
				</g>
			</g>
			<g id="text_13_1_">
				<g transform="translate(154.037732 141.344499)scale(0.06 -0.06)">
					<g>
						<path id="ArialMT-4a_4_" d="M4429.7,9.9l8.5,1.2c0.2-5.5,1.3-9.2,3.1-11.2s4.3-3,7.6-3c2.4,0,4.4,0.5,6.1,1.6
							c1.7,1.1,2.9,2.6,3.6,4.4c0.7,1.9,1,4.9,1,9v49.3h9.5V12.4c0-6-0.7-10.6-2.2-13.9c-1.4-3.3-3.7-5.8-6.9-7.5
							c-3.1-1.7-6.8-2.6-11-2.6c-6.4,0-11.2,1.8-14.5,5.4C4431.2-2.6,4429.5,2.8,4429.7,9.9z"/>
					</g>
					<g>
						<path id="ArialMT-4a_3_" d="M4479.7,9.9l8.5,1.2c0.2-5.5,1.3-9.2,3.1-11.2s4.3-3,7.6-3c2.4,0,4.4,0.5,6.1,1.6
							c1.7,1.1,2.9,2.6,3.6,4.4c0.7,1.9,1,4.9,1,9v49.3h9.5V12.4c0-6-0.7-10.6-2.2-13.9c-1.4-3.3-3.7-5.8-6.9-7.5
							c-3.1-1.7-6.8-2.6-11-2.6c-6.3,0-11.1,1.8-14.4,5.4C4481.2-2.6,4479.6,2.8,4479.7,9.9z"/>
					</g>
					<g>
						<path id="ArialMT-41_2_" d="M4526.7-10.4l27.5,71.6h10.2l29.2-71.6h-10.8l-8.4,21.7h-29.9l-7.8-21.7H4526.7z M4547.3,19h24.3
							l-7.5,19.8c-2.3,6-4,11-5.1,14.8c-0.9-4.6-2.2-9.2-3.9-13.7L4547.3,19z"/>
					</g>
				</g>
			</g>
			<g id="text_14_1_">
				<g transform="translate(95.596962 39.056114)scale(0.06 -0.06)">
					<g>
						<path id="ArialMT-53_1_" d="M4431.3,12.6l8.9,0.8c0.4-3.6,1.4-6.5,3-8.8s4-4.1,7.2-5.6c3.3-1.4,6.9-2.1,11-2.1
							c3.6,0,6.8,0.5,9.6,1.6c2.8,1.1,4.8,2.5,6.2,4.4s2,3.9,2,6.1s-0.7,4.2-2,5.9c-1.3,1.7-3.4,3.1-6.4,4.2
							c-1.9,0.8-6.2,1.9-12.8,3.5c-6.6,1.6-11.2,3.1-13.8,4.5c-3.4,1.8-6,4-7.7,6.7c-1.7,2.7-2.5,5.6-2.5,8.9c0,3.6,1,7,3.1,10.1
							c2.1,3.1,5,5.5,9,7.2c3.9,1.6,8.3,2.4,13.1,2.4c5.3,0,10-0.9,14-2.6c4.1-1.7,7.2-4.2,9.4-7.5c2.2-3.3,3.3-7.1,3.5-11.3
							l-9.1-0.7c-0.5,4.5-2.1,7.9-5,10.2c-2.8,2.3-7,3.5-12.5,3.5c-5.7,0-9.9-1.1-12.5-3.2c-2.6-2.1-3.9-4.6-3.9-7.6
							c0-2.6,0.9-4.7,2.8-6.4c1.8-1.7,6.6-3.4,14.3-5.1c7.7-1.7,13-3.3,15.8-4.6c4.2-1.9,7.2-4.4,9.2-7.3s3-6.3,3-10.2
							c0-3.8-1.1-7.4-3.3-10.8c-2.2-3.4-5.3-6-9.4-7.9c-4-1.6-8.6-2.5-13.7-2.5c-6.5,0-11.9,0.9-16.3,2.8c-4.4,1.9-7.8,4.7-10.3,8.5
							S4431.4,7.8,4431.3,12.6z"/>
					</g>
					<g>
						<path id="ArialMT-4f_1_" d="M4498.3,24.5c0,11.9,3.2,21.2,9.6,27.9s14.6,10.1,24.7,10.1c6.6,0,12.6-1.6,17.9-4.8
							c5.3-3.2,9.3-7.6,12.1-13.2c2.8-5.6,4.2-12.1,4.2-19.2c0-7.2-1.5-13.7-4.4-19.5c-2.9-5.7-7.1-10.1-12.5-13s-11.2-4.4-17.4-4.4
							c-6.7,0-12.7,1.6-18,4.9c-5.3,3.3-9.3,7.7-12.1,13.3C4499.7,12.2,4498.3,18.2,4498.3,24.5z M4508.1,24.3
							c0-8.6,2.3-15.4,7-20.4c4.6-5,10.5-7.4,17.5-7.4c7.1,0,13,2.5,17.6,7.5s6.9,12.1,6.9,21.3c0,5.8-1,10.9-3,15.2
							s-4.9,7.7-8.7,10.1c-3.8,2.4-8,3.6-12.8,3.6c-6.7,0-12.5-2.3-17.3-6.9C4510.5,42.8,4508.1,35.1,4508.1,24.3z"/>
					</g>
					<g>
						<path id="ArialMT-4e_1_" d="M4578.9-10.4v71.6h9.7L4626.2,5v56.2h9.1v-71.6h-9.7L4588,45.8v-56.2H4578.9z"/>
					</g>
				</g>
			</g>
			<g id="text_15_1_">
				<g transform="translate(96.181875 19.92)scale(0.08 -0.08)">
					<g>
						<path id="DejaVuSans-53_1_" d="M3373.6,62.7v-9.6c-3.7,1.8-7.3,3.1-10.6,4c-3.3,0.9-6.5,1.3-9.6,1.3c-5.4,0-9.5-1-12.4-3.1
							c-2.9-2.1-4.4-5-4.4-8.9c0-3.2,1-5.7,2.9-7.3c1.9-1.6,5.6-3,11-4l6-1.2c7.4-1.4,12.8-3.9,16.3-7.4s5.2-8.3,5.2-14.2
							c0-7.1-2.4-12.4-7.1-16.1c-4.7-3.6-11.7-5.4-20.8-5.4c-3.4,0-7.1,0.4-11,1.2c-3.9,0.8-7.9,1.9-12.1,3.5V5.7
							c4-2.2,7.9-3.9,11.8-5.1c3.8-1.1,7.6-1.7,11.3-1.7c5.6,0,10,1.1,13,3.3c3.1,2.2,4.6,5.4,4.6,9.5c0,3.6-1.1,6.4-3.3,8.4
							s-5.8,3.5-10.8,4.5l-6,1.2c-7.4,1.5-12.7,3.8-16,6.9c-3.3,3.1-4.9,7.5-4.9,13c0,6.4,2.3,11.5,6.8,15.2
							c4.5,3.7,10.8,5.6,18.8,5.6c3.4,0,6.9-0.3,10.5-0.9C3366.3,64.9,3369.9,63.9,3373.6,62.7z"/>
					</g>
					<g>
						<path id="DejaVuSans-65_1_" d="M3439.8,21.8v-4.4h-41.3c0.4-6.2,2.3-10.9,5.6-14.1s8-4.9,13.9-4.9c3.4,0,6.8,0.4,10,1.3
							c3.2,0.8,6.5,2.1,9.7,3.8V-5c-3.2-1.4-6.5-2.4-9.9-3.1c-3.4-0.7-6.8-1.1-10.3-1.1c-8.7,0-15.6,2.5-20.7,7.6
							c-5.1,5.1-7.6,12-7.6,20.6c0,8.9,2.4,16,7.2,21.3s11.4,7.9,19.6,7.9c7.4,0,13.2-2.4,17.5-7.1
							C3437.6,36.4,3439.8,29.9,3439.8,21.8z M3430.8,24.4c-0.1,4.9-1.4,8.8-4.1,11.8c-2.7,2.9-6.2,4.4-10.7,4.4c-5,0-9-1.4-12-4.2
							s-4.7-6.8-5.2-12H3430.8z"/>
					</g>
					<g>
						<path id="DejaVuSans-61_1_" d="M3479.4,19.7c-7.3,0-12.3-0.8-15.1-2.5c-2.8-1.7-4.2-4.5-4.2-8.5c0-3.2,1.1-5.7,3.2-7.6
							c2.1-1.9,5-2.8,8.6-2.8c5,0,9,1.8,12,5.3s4.5,8.2,4.5,14.1v2H3479.4z M3497.3,23.4V-7.8h-9v8.3c-2.1-3.3-4.6-5.8-7.7-7.3
							c-3.1-1.5-6.8-2.4-11.2-2.4c-5.6,0-10,1.6-13.4,4.7c-3.3,3.1-5,7.4-5,12.6c0,6.1,2.1,10.8,6.2,13.9c4.1,3.1,10.3,4.7,18.4,4.7
							h12.6v0.9c0,4.1-1.4,7.3-4.1,9.6s-6.5,3.4-11.5,3.4c-3.1,0-6.2-0.4-9.1-1.1c-3-0.8-5.8-1.9-8.5-3.4v8.3
							c3.3,1.3,6.5,2.2,9.6,2.8c3.1,0.6,6.1,1,9,1c7.9,0,13.8-2.1,17.7-6.2C3495.3,38,3497.3,31.7,3497.3,23.4z"/>
					</g>
					<g>
						<path id="DejaVuSans-73_1_" d="M3550.7,45.3v-8.5c-2.5,1.3-5.2,2.3-7.9,2.9c-2.7,0.7-5.6,1-8.5,1c-4.5,0-7.8-0.7-10-2
							c-2.2-1.4-3.3-3.4-3.3-6.2c0-2.1,0.8-3.7,2.4-4.9s4.8-2.3,9.6-3.4l3.1-0.7c6.4-1.4,10.9-3.3,13.6-5.8s4-6,4-10.4
							c0-5.1-2-9.1-6-12.1s-9.5-4.4-16.6-4.4c-2.9,0-6,0.3-9.2,0.9s-6.5,1.4-10,2.6v9.3c3.3-1.7,6.6-3,9.8-3.9s6.4-1.3,9.6-1.3
							c4.2,0,7.5,0.7,9.8,2.2c2.3,1.4,3.4,3.5,3.4,6.1c0,2.4-0.8,4.3-2.5,5.6c-1.6,1.3-5.2,2.6-10.8,3.8l-3.1,0.7
							c-5.6,1.2-9.6,3-12.1,5.4s-3.7,5.8-3.7,10c0,5.1,1.8,9.1,5.5,11.9c3.6,2.8,8.8,4.2,15.5,4.2c3.3,0,6.4-0.2,9.4-0.7
							C3545.5,47,3548.2,46.3,3550.7,45.3z"/>
					</g>
					<g>
						<path id="DejaVuSans-6f_1_" d="M3589.1,40.6c-4.8,0-8.6-1.9-11.4-5.6s-4.2-8.9-4.2-15.5s1.4-11.7,4.2-15.5s6.6-5.6,11.5-5.6
							c4.8,0,8.6,1.9,11.4,5.7s4.2,8.9,4.2,15.4s-1.4,11.6-4.2,15.4C3597.7,38.7,3593.9,40.6,3589.1,40.6z M3589.1,48.2
							c7.8,0,13.9-2.5,18.4-7.6s6.7-12.1,6.7-21.1c0-8.9-2.2-16-6.7-21.1s-10.6-7.6-18.4-7.6s-14,2.5-18.4,7.6
							c-4.4,5.1-6.7,12.1-6.7,21.1s2.2,16,6.7,21.1C3575.1,45.7,3581.2,48.2,3589.1,48.2z"/>
					</g>
					<g>
						<path id="DejaVuSans-6e_1_" d="M3674.6,25.2v-33h-9v32.7c0,5.2-1,9-3,11.6c-2,2.6-5,3.9-9.1,3.9c-4.9,0-8.7-1.5-11.5-4.6
							c-2.8-3.1-4.2-7.3-4.2-12.6v-31h-9v54.7h9v-8.5c2.2,3.3,4.7,5.7,7.6,7.4c2.9,1.6,6.3,2.4,10.1,2.4c6.3,0,11-1.9,14.2-5.8
							C3672.9,38.5,3674.6,32.8,3674.6,25.2z"/>
					</g>
				</g>
			</g>
		</g>
	</g>
	<rect x="265.6" y="0.6" class="st13" width="18.9" height="17.3"/>
	<text transform="matrix(1 0 0 1 265.6065 12.6374)" class="st14 st15">(b)</text>
</g>
<g>
	<g id="figure_1_2_">
		<g id="patch_1_2_">
			<path class="st0" d="M0.6,453.4h216v-216H0.6V453.4z"/>
		</g>
		<g id="axes_1_2_">
			<g id="patch_2_2_">
				<path class="st0" d="M27.6,429.6H195V263.3H27.6V429.6z"/>
			</g>
			<g id="LineCollection_1_2_">
				<g>
					<g>
						<defs>
							<rect id="SVGID_25_" x="27.6" y="263.3" width="167.4" height="166.3"/>
						</defs>
						<clipPath id="SVGID_26_">
							<use xlink:href="#SVGID_25_"  style="overflow:visible;"/>
						</clipPath>
						<path class="st22" d="M27.6,346.5H195"/>
					</g>
				</g>
			</g>
			<g id="LineCollection_2_2_">
				<g>
					<g>
						<defs>
							<rect id="SVGID_27_" x="27.6" y="263.3" width="167.4" height="166.3"/>
						</defs>
						<clipPath id="SVGID_28_">
							<use xlink:href="#SVGID_27_"  style="overflow:visible;"/>
						</clipPath>
						<path class="st23" d="M111.3,429.6V263.3"/>
					</g>
				</g>
			</g>
			<g id="PathCollection_1_2_">
				<g>
					<g>
						<defs>
							<rect id="SVGID_29_" x="27.6" y="263.3" width="167.4" height="166.3"/>
						</defs>
						<clipPath id="SVGID_30_">
							<use xlink:href="#SVGID_29_"  style="overflow:visible;"/>
						</clipPath>
						<g class="st24">
							<g>
								<path id="C0_0_df7037d6c4" class="st4" d="M170.1,359.9c1.9,0,3.7-0.7,5-2.1c1.3-1.3,2.1-3.1,2.1-5s-0.7-3.7-2.1-5
									c-1.3-1.3-3.1-2.1-5-2.1s-3.7,0.7-5,2.1c-1.3,1.3-2.1,3.1-2.1,5s0.7,3.7,2.1,5C166.5,359.2,168.3,359.9,170.1,359.9z"/>
							</g>
						</g>
					</g>
				</g>
				<g>
					<g>
						<defs>
							<rect id="SVGID_31_" x="27.6" y="263.3" width="167.4" height="166.3"/>
						</defs>
						<clipPath id="SVGID_32_">
							<use xlink:href="#SVGID_31_"  style="overflow:visible;"/>
						</clipPath>
						<g class="st25">
							<g>
								<path id="C0_0_df7037d6c4_1_" class="st6" d="M87.4,299.7c1.9,0,3.7-0.7,5-2.1c1.3-1.3,2.1-3.1,2.1-5c0-1.9-0.7-3.7-2.1-5
									c-1.3-1.3-3.1-2.1-5-2.1s-3.7,0.7-5,2.1c-1.3,1.3-2.1,3.1-2.1,5c0,1.9,0.7,3.7,2.1,5C83.8,299,85.6,299.7,87.4,299.7z"/>
							</g>
						</g>
					</g>
				</g>
				<g>
					<g>
						<defs>
							<rect id="SVGID_33_" x="27.6" y="263.3" width="167.4" height="166.3"/>
						</defs>
						<clipPath id="SVGID_34_">
							<use xlink:href="#SVGID_33_"  style="overflow:visible;"/>
						</clipPath>
						<g class="st26">
							<g>
								<path id="C0_0_df7037d6c4_2_" class="st8" d="M76.3,401c1.9,0,3.7-0.7,5-2.1c1.3-1.3,2.1-3.1,2.1-5s-0.7-3.7-2.1-5
									c-1.3-1.3-3.1-2.1-5-2.1s-3.7,0.7-5,2.1c-1.3,1.3-2.1,3.1-2.1,5s0.7,3.7,2.1,5C72.7,400.2,74.5,401,76.3,401z"/>
							</g>
						</g>
					</g>
				</g>
			</g>
			<g id="matplotlib.axis_1_2_">
				<g id="xtick_1_2_">
					<g id="line2d_1_2_">
						<g>
							<g>
								<path id="mb938f6d370" class="st11" d="M27.6,429.6v-2"/>
							</g>
						</g>
					</g>
					<g id="text_1_2_">
						<g transform="translate(19.628906 203.338437)scale(0.1 -0.1)">
							<g>
								<path id="DejaVuSans-2212_11_" d="M16.8-2338.8h62.6v-8.3H16.8V-2338.8z"/>
							</g>
							<g>
								<path id="DejaVuSans-32_11_" d="M109.2-2366h34.4v-8.3H97.3v8.3c3.7,3.9,8.8,9.1,15.3,15.6s10.5,10.7,12.2,12.6
									c3.2,3.5,5.4,6.5,6.6,9c1.3,2.5,1.9,4.9,1.9,7.2c0,3.9-1.4,7-4.1,9.5c-2.7,2.4-6.3,3.7-10.6,3.7c-3.1,0-6.4-0.5-9.8-1.6
									c-3.4-1.1-7.1-2.7-11-4.9v10c4,1.6,7.7,2.8,11.1,3.6c3.5,0.8,6.6,1.2,9.5,1.2c7.6,0,13.6-1.9,18.1-5.7
									c4.5-3.8,6.7-8.8,6.7-15.1c0-3-0.6-5.8-1.7-8.5c-1.1-2.7-3.2-5.8-6.1-9.5c-0.8-0.9-3.4-3.7-7.8-8.2
									C123.3-2351.6,117.1-2357.9,109.2-2366z"/>
							</g>
						</g>
					</g>
				</g>
				<g id="xtick_2_2_">
					<g id="line2d_2_2_">
						<g>
							<g>
								<path id="mb938f6d370_1_" class="st11" d="M69.4,429.6v-2"/>
							</g>
						</g>
					</g>
					<g id="text_2_2_">
						<g transform="translate(61.478906 203.338437)scale(0.1 -0.1)">
							<g>
								<path id="DejaVuSans-2212_10_" d="M16.8-2338.8h62.6v-8.3H16.8V-2338.8z"/>
							</g>
							<g>
								<path id="DejaVuSans-31_11_" d="M102.4-2366h16.1v55.6l-17.5-3.5v9l17.4,3.5h9.9v-64.6h16.1v-8.3h-42V-2366z"/>
							</g>
						</g>
					</g>
				</g>
				<g id="xtick_3_2_">
					<g id="line2d_3_2_">
						<g>
							<g>
								<path id="mb938f6d370_2_" class="st11" d="M111.3,429.6v-2"/>
							</g>
						</g>
					</g>
					<g id="text_3_2_">
						<g transform="translate(107.51875 203.338437)scale(0.1 -0.1)">
							<g>
								<path id="DejaVuSans-30_5_" d="M38-2307.9c-5.1,0-8.9-2.5-11.5-7.5s-3.8-12.5-3.8-22.5s1.3-17.5,3.8-22.5
									c2.6-5,6.4-7.5,11.5-7.5s8.9,2.5,11.5,7.5c2.6,5,3.8,12.5,3.8,22.5s-1.3,17.5-3.8,22.5C46.9-2310.4,43.1-2307.9,38-2307.9z
									 M38-2300.1c8.2,0,14.4-3.2,18.7-9.7s6.5-15.8,6.5-28.1c0-12.3-2.2-21.6-6.5-28.1s-10.5-9.7-18.7-9.7s-14.4,3.2-18.7,9.7
									s-6.5,15.8-6.5,28.1c0,12.3,2.2,21.7,6.5,28.1C23.6-2303.3,29.8-2300.1,38-2300.1z"/>
							</g>
						</g>
					</g>
				</g>
				<g id="xtick_4_2_">
					<g id="line2d_4_2_">
						<g>
							<g>
								<path id="mb938f6d370_3_" class="st11" d="M153.2,429.6v-2"/>
							</g>
						</g>
					</g>
					<g id="text_4_2_">
						<g transform="translate(149.36875 203.338437)scale(0.1 -0.1)">
							<g>
								<path id="DejaVuSans-31_10_" d="M18.6-2366h16.1v55.6l-17.5-3.5v9l17.4,3.5h9.9v-64.6h16.1v-8.3h-42
									C18.6-2374.3,18.6-2366,18.6-2366z"/>
							</g>
						</g>
					</g>
				</g>
				<g id="xtick_5_2_">
					<g id="line2d_5_2_">
						<g>
							<g>
								<path id="mb938f6d370_4_" class="st11" d="M195,429.6v-2"/>
							</g>
						</g>
					</g>
					<g id="text_5_2_">
						<g transform="translate(191.21875 203.338437)scale(0.1 -0.1)">
							<g>
								<path id="DejaVuSans-32_10_" d="M25.4-2366h34.4v-8.3H13.5v8.3c3.7,3.9,8.8,9.1,15.3,15.6s10.5,10.7,12.2,12.6
									c3.2,3.5,5.4,6.5,6.6,9c1.3,2.5,1.9,4.9,1.9,7.2c0,3.9-1.4,7-4.1,9.5c-2.7,2.4-6.3,3.7-10.6,3.7c-3.1,0-6.4-0.5-9.8-1.6
									c-3.4-1.1-7.1-2.7-11-4.9v10c4,1.6,7.7,2.8,11.1,3.6c3.5,0.8,6.6,1.2,9.5,1.2c7.6,0,13.6-1.9,18.1-5.7s6.7-8.8,6.7-15.1
									c0-3-0.6-5.8-1.7-8.5c-1.1-2.7-3.2-5.8-6.1-9.5c-0.8-0.9-3.4-3.7-7.8-8.2C39.5-2351.6,33.3-2357.9,25.4-2366z"/>
							</g>
						</g>
					</g>
				</g>
			</g>
			<g id="matplotlib.axis_2_2_">
				<g id="ytick_1_2_">
					<g id="line2d_6_2_">
						<g>
							<g>
								<path id="mf429091ac8" class="st11" d="M27.6,429.6h2"/>
							</g>
						</g>
					</g>
					<g id="text_6_2_">
						<g transform="translate(8.757812 196.039219)scale(0.1 -0.1)">
							<g>
								<path id="DejaVuSans-2212_9_" d="M16.8-2338.8h62.6v-8.3H16.8V-2338.8z"/>
							</g>
							<g>
								<path id="DejaVuSans-32_9_" d="M109.2-2366h34.4v-8.3H97.3v8.3c3.7,3.9,8.8,9.1,15.3,15.6s10.5,10.7,12.2,12.6
									c3.2,3.5,5.4,6.5,6.6,9c1.3,2.5,1.9,4.9,1.9,7.2c0,3.9-1.4,7-4.1,9.5c-2.7,2.4-6.3,3.7-10.6,3.7c-3.1,0-6.4-0.5-9.8-1.6
									c-3.4-1.1-7.1-2.7-11-4.9v10c4,1.6,7.7,2.8,11.1,3.6c3.5,0.8,6.6,1.2,9.5,1.2c7.6,0,13.6-1.9,18.1-5.7s6.7-8.8,6.7-15.1
									c0-3-0.6-5.8-1.7-8.5c-1.1-2.7-3.2-5.8-6.1-9.5c-0.8-0.9-3.4-3.7-7.8-8.2C123.3-2351.6,117.1-2357.9,109.2-2366z"/>
							</g>
						</g>
					</g>
				</g>
				<g id="ytick_2_2_">
					<g id="line2d_7_2_">
						<g>
							<g>
								<path id="mf429091ac8_1_" class="st11" d="M27.6,388.1h2"/>
							</g>
						</g>
					</g>
					<g id="text_7_2_">
						<g transform="translate(8.757812 154.459219)scale(0.1 -0.1)">
							<g>
								<path id="DejaVuSans-2212_8_" d="M16.8-2338.8h62.6v-8.3H16.8V-2338.8z"/>
							</g>
							<g>
								<path id="DejaVuSans-31_9_" d="M102.4-2366h16.1v55.6l-17.5-3.5v9l17.4,3.5h9.9v-64.6h16.1v-8.3h-42V-2366z"/>
							</g>
						</g>
					</g>
				</g>
				<g id="ytick_3_2_">
					<g id="line2d_8_2_">
						<g>
							<g>
								<path id="mf429091ac8_2_" class="st11" d="M27.6,346.5h2"/>
							</g>
						</g>
					</g>
					<g id="text_8_2_">
						<g transform="translate(17.1375 112.879219)scale(0.1 -0.1)">
							<g>
								<path id="DejaVuSans-30_4_" d="M38-2307.9c-5.1,0-8.9-2.5-11.5-7.5s-3.8-12.5-3.8-22.5s1.3-17.5,3.8-22.5
									c2.6-5,6.4-7.5,11.5-7.5s8.9,2.5,11.5,7.5c2.6,5,3.8,12.5,3.8,22.5s-1.3,17.5-3.8,22.5C46.9-2310.4,43.1-2307.9,38-2307.9z
									 M38-2300.1c8.2,0,14.4-3.2,18.7-9.7s6.5-15.8,6.5-28.1c0-12.3-2.2-21.6-6.5-28.1s-10.5-9.7-18.7-9.7s-14.4,3.2-18.7,9.7
									s-6.5,15.8-6.5,28.1c0,12.3,2.2,21.7,6.5,28.1C23.6-2303.3,29.8-2300.1,38-2300.1z"/>
							</g>
						</g>
					</g>
				</g>
				<g id="ytick_4_2_">
					<g id="line2d_9_2_">
						<g>
							<g>
								<path id="mf429091ac8_3_" class="st11" d="M27.6,304.9h2"/>
							</g>
						</g>
					</g>
					<g id="text_9_2_">
						<g transform="translate(17.1375 71.299219)scale(0.1 -0.1)">
							<g>
								<path id="DejaVuSans-31_8_" d="M18.6-2366h16.1v55.6l-17.5-3.5v9l17.4,3.5h9.9v-64.6h16.1v-8.3h-42
									C18.6-2374.3,18.6-2366,18.6-2366z"/>
							</g>
						</g>
					</g>
				</g>
				<g id="ytick_5_2_">
					<g id="line2d_10_2_">
						<g>
							<g>
								<path id="mf429091ac8_4_" class="st11" d="M27.6,263.3h2"/>
							</g>
						</g>
					</g>
					<g id="text_10_2_">
						<g transform="translate(17.1375 29.719219)scale(0.1 -0.1)">
							<g>
								<path id="DejaVuSans-32_8_" d="M25.4-2366h34.4v-8.3H13.5v8.3c3.7,3.9,8.8,9.1,15.3,15.6s10.5,10.7,12.2,12.6
									c3.2,3.5,5.4,6.5,6.6,9c1.3,2.5,1.9,4.9,1.9,7.2c0,3.9-1.4,7-4.1,9.5c-2.7,2.4-6.3,3.7-10.6,3.7c-3.1,0-6.4-0.5-9.8-1.6
									c-3.4-1.1-7.1-2.7-11-4.9v10c4,1.6,7.7,2.8,11.1,3.6c3.5,0.8,6.6,1.2,9.5,1.2c7.6,0,13.6-1.9,18.1-5.7s6.7-8.8,6.7-15.1
									c0-3-0.6-5.8-1.7-8.5c-1.1-2.7-3.2-5.8-6.1-9.5c-0.8-0.9-3.4-3.7-7.8-8.2C39.5-2351.6,33.3-2357.9,25.4-2366z"/>
							</g>
						</g>
					</g>
				</g>
			</g>
			<g id="patch_3_2_">
				<path class="st12" d="M27.6,429.6V263.3"/>
			</g>
			<g id="patch_4_2_">
				<path class="st12" d="M195,429.6V263.3"/>
			</g>
			<g id="patch_5_2_">
				<path class="st12" d="M27.6,429.6H195"/>
			</g>
			<g id="patch_6_2_">
				<path class="st12" d="M27.6,263.3H195"/>
			</g>
			<g id="text_11_2_">
				<g transform="translate(140.201232 117.003992)scale(0.06 -0.06)">
					<g>
						<path id="ArialMT-4e_3_" d="M17.9-3957.1v71.6h9.7l37.6-56.2v56.2h9.1v-71.6h-9.7L27-3900.8v-56.3H17.9z"/>
					</g>
					<g>
						<path id="ArialMT-6f" d="M85.8-3931.2c0,9.6,2.7,16.7,8,21.3c4.5,3.9,9.9,5.8,16.4,5.8c7.1,0,12.9-2.3,17.5-7
							c4.5-4.7,6.8-11.1,6.8-19.4c0-6.7-1-11.9-3-15.8c-2-3.8-4.9-6.8-8.8-8.9c-3.8-2.1-8-3.2-12.5-3.2c-7.3,0-13.1,2.3-17.6,7
							C88.1-3946.6,85.8-3939.9,85.8-3931.2z M94.9-3931.2c0-6.6,1.4-11.6,4.3-14.9s6.5-5,10.9-5s8,1.7,10.9,5s4.3,8.4,4.3,15.2
							c0,6.4-1.5,11.3-4.4,14.6s-6.5,5-10.9,5s-8-1.6-10.9-4.9C96.3-3919.6,94.9-3924.5,94.9-3931.2z"/>
					</g>
					<g>
						<path id="ArialMT-72" d="M144.6-3957.1v51.9h7.9v-7.9c2,3.7,3.9,6.1,5.6,7.3c1.7,1.2,3.6,1.8,5.6,1.8c3,0,6-0.9,9-2.8l-3-8.2
							c-2.1,1.3-4.3,1.9-6.4,1.9c-1.9,0-3.7-0.6-5.2-1.7s-2.6-2.8-3.3-4.8c-1-3.1-1.5-6.5-1.5-10.2v-27.3H144.6z"/>
					</g>
					<g>
						<path id="ArialMT-6d" d="M178-3957.1v51.9h7.9v-7.3c1.6,2.5,3.8,4.6,6.5,6.1c2.7,1.6,5.8,2.3,9.2,2.3c3.8,0,7-0.8,9.5-2.4
							c2.5-1.6,4.2-3.8,5.2-6.7c4.1,6.1,9.4,9.1,16,9.1c5.1,0,9.1-1.4,11.9-4.3c2.8-2.8,4.2-7.2,4.2-13.2v-35.5h-8.8v32.7
							c0,3.5-0.3,6-0.9,7.6c-0.6,1.6-1.6,2.8-3.1,3.7c-1.5,0.9-3.2,1.4-5.3,1.4c-3.6,0-6.7-1.2-9.1-3.6c-2.4-2.4-3.6-6.3-3.6-11.6
							v-30.2h-8.8v33.7c0,3.9-0.7,6.8-2.2,8.8c-1.4,2-3.8,2.9-7,2.9c-2.5,0-4.8-0.7-6.9-2c-2.1-1.3-3.6-3.2-4.6-5.7
							c-0.9-2.5-1.4-6.1-1.4-10.8v-26.9H178z"/>
					</g>
					<g>
						<path id="ArialMT-61" d="M295.2-3950.7c-3.3-2.8-6.4-4.7-9.4-5.9c-3-1.1-6.2-1.7-9.7-1.7c-5.7,0-10.1,1.4-13.1,4.2
							s-4.7,6.3-4.7,10.7c0,2.5,0.6,4.9,1.7,7c1.2,2.1,2.7,3.8,4.5,5.1c1.8,1.3,4,2.2,6.3,2.9c1.7,0.5,4.3,0.9,7.8,1.3
							c7.1,0.8,12.3,1.8,15.7,3c0,1.2,0,2,0,2.3c0,3.6-0.8,6.1-2.5,7.6c-2.2,2-5.6,3-10,3c-4.1,0-7.2-0.7-9.2-2.2s-3.4-4-4.4-7.7
							l-8.6,1.2c0.8,3.7,2.1,6.6,3.9,8.9s4.4,4,7.8,5.2s7.3,1.8,11.8,1.8c4.4,0,8-0.5,10.8-1.6c2.8-1,4.8-2.4,6.1-3.9
							c1.3-1.6,2.2-3.6,2.7-6c0.3-1.5,0.4-4.2,0.4-8.1v-11.8c0-8.2,0.2-13.3,0.6-15.5c0.4-2.2,1.1-4.2,2.2-6.2h-9.2
							C296-3955.3,295.4-3953.1,295.2-3950.7z M294.4-3931.1c-3.2-1.3-8-2.4-14.4-3.3c-3.6-0.5-6.2-1.1-7.7-1.8
							c-1.5-0.6-2.6-1.6-3.5-2.8c-0.8-1.2-1.2-2.6-1.2-4.2c0-2.3,0.9-4.3,2.7-5.9c1.8-1.6,4.4-2.3,7.8-2.3s6.4,0.7,9,2.2
							s4.6,3.5,5.8,6.1c0.9,2,1.4,4.9,1.4,8.8v3.2H294.4z"/>
					</g>
					<g>
						<path id="ArialMT-6c" d="M316.7-3957.1v71.6h8.8v-71.6H316.7z"/>
					</g>
				</g>
			</g>
			<g id="text_12_2_">
				<g transform="translate(68.5015 56.819707)scale(0.06 -0.06)">
					<g>
						<path id="ArialMT-45" d="M18.2-3957.1v71.6H70v-8.4H27.7v-22h39.6v-8.4H27.7v-24.3h43.9v-8.5H18.2z"/>
					</g>
					<g>
						<path id="ArialMT-4e_2_" d="M84.6-3957.1v71.6h9.7l37.6-56.2v56.2h9.1v-71.6h-9.7l-37.6,56.3v-56.3H84.6z"/>
					</g>
				</g>
			</g>
			<g id="text_13_2_">
				<g transform="translate(58.388209 158.069583)scale(0.06 -0.06)">
					<g>
						<path id="ArialMT-4c" d="M17.6-3957.1v71.6h9.5v-63.1h35.2v-8.5H17.6z"/>
					</g>
					<g>
						<path id="ArialMT-41_4_" d="M65.8-3957.1l27.5,71.6h10.2l29.3-71.6H122l-8.4,21.7H83.7l-7.9-21.7H65.8z M86.4-3927.7h24.3
							l-7.5,19.8c-2.3,6-4,11-5.1,14.8c-0.9-4.6-2.2-9.2-3.9-13.7L86.4-3927.7z"/>
					</g>
				</g>
			</g>
			<g id="text_14_2_">
				<g transform="translate(86.15 19.92)scale(0.08 -0.08)">
					<g>
						<path id="DejaVuSans-45" d="M17.6-2894.9h46.1v-8.3H27.5v-21.6h34.7v-8.3H27.5v-26.4h37.1v-8.3h-47
							C17.6-2967.8,17.6-2894.9,17.6-2894.9z"/>
					</g>
					<g>
						<path id="DejaVuSans-4e" d="M80.8-2894.9h13.3l32.3-61v61h9.6v-72.9h-13.3l-32.3,61v-61h-9.6V-2894.9z"/>
					</g>
					<g>
						<path id="DejaVuSans-53_2_" d="M199.3-2897.3v-9.6c-3.7,1.8-7.3,3.1-10.6,4c-3.3,0.9-6.5,1.3-9.6,1.3c-5.4,0-9.5-1-12.4-3.1
							c-2.9-2.1-4.4-5-4.4-8.9c0-3.2,1-5.7,2.9-7.3c1.9-1.6,5.6-3,11-4l6-1.2c7.4-1.4,12.8-3.9,16.3-7.4s5.2-8.3,5.2-14.2
							c0-7.1-2.4-12.4-7.1-16.1c-4.7-3.6-11.7-5.5-20.8-5.5c-3.4,0-7.1,0.4-11,1.2c-3.9,0.8-7.9,1.9-12.1,3.5v10.2
							c4-2.2,7.9-3.9,11.8-5.1c3.8-1.1,7.6-1.7,11.3-1.7c5.6,0,10,1.1,13,3.3c3.1,2.2,4.6,5.4,4.6,9.5c0,3.6-1.1,6.4-3.3,8.4
							s-5.8,3.5-10.8,4.5l-6,1.2c-7.4,1.5-12.7,3.8-16,6.9c-3.3,3.1-4.9,7.5-4.9,13c0,6.4,2.3,11.5,6.8,15.2s10.8,5.6,18.8,5.6
							c3.4,0,6.9-0.3,10.5-0.9C192-2895.1,195.6-2896.1,199.3-2897.3z"/>
					</g>
					<g>
						<path id="DejaVuSans-4f" d="M248.7-2901.6c-7.2,0-12.9-2.7-17.1-8c-4.2-5.3-6.3-12.6-6.3-21.8c0-9.2,2.1-16.4,6.3-21.8
							c4.2-5.3,9.9-8,17.1-8c7.2,0,12.8,2.7,17,8c4.2,5.3,6.3,12.6,6.3,21.8c0,9.2-2.1,16.5-6.3,21.8
							C261.5-2904.3,255.8-2901.6,248.7-2901.6z M248.7-2893.6c10.2,0,18.4-3.4,24.5-10.3c6.1-6.9,9.2-16,9.2-27.6
							c0-11.5-3.1-20.7-9.2-27.5s-14.3-10.2-24.5-10.2c-10.2,0-18.4,3.4-24.6,10.2c-6.1,6.8-9.2,16-9.2,27.5s3.1,20.7,9.2,27.6
							C230.2-2897,238.4-2893.6,248.7-2893.6z"/>
					</g>
					<g>
						<path id="DejaVuSans-20" d="M288-2967.8"/>
					</g>
					<g>
						<path id="DejaVuSans-70" d="M337.9-2959.6v-29h-9v75.5h9v-8.3c1.9,3.2,4.3,5.7,7.2,7.2c2.9,1.6,6.3,2.4,10.3,2.4
							c6.6,0,12-2.6,16.2-7.9s6.2-12.2,6.2-20.8s-2.1-15.5-6.2-20.8s-9.5-7.9-16.2-7.9c-4,0-7.4,0.8-10.3,2.4
							C342.2-2965.3,339.8-2962.8,337.9-2959.6z M368.5-2940.5c0,6.6-1.4,11.8-4.1,15.5s-6.5,5.6-11.2,5.6c-4.8,0-8.5-1.9-11.2-5.6
							s-4.1-8.9-4.1-15.5s1.4-11.8,4.1-15.5s6.5-5.6,11.2-5.6c4.8,0,8.5,1.9,11.2,5.6S368.5-2947.1,368.5-2940.5z"/>
					</g>
					<g>
						<path id="DejaVuSans-68" d="M438.1-2934.8v-33h-9v32.7c0,5.2-1,9-3,11.6s-5,3.9-9.1,3.9c-4.9,0-8.7-1.5-11.5-4.6
							c-2.8-3.1-4.2-7.3-4.2-12.6v-31h-9v76h9v-29.8c2.2,3.3,4.7,5.7,7.6,7.4c2.9,1.6,6.3,2.4,10.1,2.4c6.3,0,11-1.9,14.2-5.8
							C436.5-2921.5,438.1-2927.2,438.1-2934.8z"/>
					</g>
					<g>
						<path id="DejaVuSans-61_2_" d="M480.9-2940.3c-7.3,0-12.3-0.8-15.1-2.5c-2.8-1.7-4.2-4.5-4.2-8.5c0-3.2,1.1-5.7,3.2-7.6
							c2.1-1.9,5-2.8,8.6-2.8c5,0,9,1.8,12,5.3s4.5,8.2,4.5,14.1v2H480.9z M498.8-2936.6v-31.2h-9v8.3c-2-3.3-4.6-5.8-7.6-7.3
							s-6.8-2.4-11.2-2.4c-5.6,0-10,1.6-13.4,4.7c-3.3,3.1-5,7.4-5,12.6c0,6.1,2.1,10.8,6.2,13.9s10.3,4.7,18.4,4.7h12.6v0.9
							c0,4.1-1.4,7.3-4.1,9.6s-6.5,3.4-11.5,3.4c-3.1,0-6.2-0.4-9.1-1.1c-3-0.8-5.8-1.9-8.5-3.4v8.3c3.3,1.3,6.5,2.2,9.6,2.8
							c3.1,0.6,6.1,1,9,1c7.9,0,13.8-2.1,17.7-6.2C496.9-2922,498.8-2928.3,498.8-2936.6z"/>
					</g>
					<g>
						<path id="DejaVuSans-73_2_" d="M552.2-2914.7v-8.5c-2.5,1.3-5.2,2.3-7.9,2.9c-2.7,0.7-5.6,1-8.5,1c-4.5,0-7.8-0.7-10-2
							c-2.2-1.4-3.3-3.4-3.3-6.2c0-2.1,0.8-3.7,2.4-4.9c1.6-1.2,4.8-2.3,9.6-3.4l3.1-0.7c6.4-1.4,10.9-3.3,13.6-5.8s4-6,4-10.4
							c0-5.1-2-9.1-6-12.1s-9.5-4.4-16.6-4.4c-2.9,0-6,0.3-9.2,0.9c-3.2,0.6-6.5,1.4-10,2.6v9.3c3.3-1.7,6.6-3,9.8-3.9
							c3.2-0.9,6.4-1.3,9.6-1.3c4.2,0,7.5,0.7,9.8,2.2c2.3,1.4,3.4,3.5,3.4,6.1c0,2.4-0.8,4.3-2.5,5.6c-1.6,1.3-5.2,2.6-10.8,3.8
							l-3.1,0.7c-5.6,1.2-9.6,3-12.1,5.4c-2.5,2.4-3.7,5.8-3.7,10c0,5.1,1.8,9.1,5.5,11.9c3.6,2.8,8.8,4.2,15.5,4.2
							c3.3,0,6.4-0.2,9.4-0.7C547-2913,549.7-2913.7,552.2-2914.7z"/>
					</g>
					<g>
						<path id="DejaVuSans-65_2_" d="M616.2-2938.2v-4.4h-41.3c0.4-6.2,2.3-10.9,5.6-14.1s8-4.9,13.9-4.9c3.4,0,6.8,0.4,10,1.3
							c3.2,0.8,6.5,2.1,9.7,3.8v-8.5c-3.2-1.4-6.5-2.4-9.9-3.1c-3.4-0.7-6.8-1.1-10.3-1.1c-8.7,0-15.6,2.5-20.7,7.6
							c-5.1,5.1-7.6,12-7.6,20.6c0,8.9,2.4,16,7.2,21.3s11.4,7.9,19.6,7.9c7.4,0,13.2-2.4,17.5-7.1
							C614.1-2923.6,616.2-2930.1,616.2-2938.2z M607.2-2935.6c-0.1,4.9-1.4,8.8-4.1,11.8c-2.7,2.9-6.2,4.4-10.7,4.4
							c-5,0-9-1.4-12-4.2c-3-2.8-4.7-6.8-5.2-12H607.2z"/>
					</g>
				</g>
			</g>
		</g>
	</g>
	<rect x="0.6" y="237.4" class="st13" width="18.9" height="17.3"/>
	<text transform="matrix(1 0 0 1 0.6208 249.4406)" class="st14 st15">(c)</text>
</g>
<g>
	<g id="figure_1_3_">
		<g id="patch_1_3_">
			<path class="st0" d="M265.6,453.7h216v-216h-216V453.7z"/>
		</g>
		<g id="axes_1_3_">
			<g id="patch_2_3_">
				<path class="st0" d="M292.6,429.9H460V263.6H292.6V429.9z"/>
			</g>
			<g id="LineCollection_1_3_">
				<g>
					<g>
						<defs>
							<rect id="SVGID_35_" x="292.6" y="263.6" width="167.4" height="166.3"/>
						</defs>
						<clipPath id="SVGID_36_">
							<use xlink:href="#SVGID_35_"  style="overflow:visible;"/>
						</clipPath>
						<path class="st27" d="M292.6,346.8H460"/>
					</g>
				</g>
			</g>
			<g id="LineCollection_2_3_">
				<g>
					<g>
						<defs>
							<rect id="SVGID_37_" x="292.6" y="263.6" width="167.4" height="166.3"/>
						</defs>
						<clipPath id="SVGID_38_">
							<use xlink:href="#SVGID_37_"  style="overflow:visible;"/>
						</clipPath>
						<path class="st28" d="M376.3,429.9V263.6"/>
					</g>
				</g>
			</g>
			<g id="PathCollection_1_3_">
				<g>
					<g>
						<defs>
							<rect id="SVGID_39_" x="292.6" y="263.6" width="167.4" height="166.3"/>
						</defs>
						<clipPath id="SVGID_40_">
							<use xlink:href="#SVGID_39_"  style="overflow:visible;"/>
						</clipPath>
						<g class="st29">
							<g>
								<path id="C0_0_0d85006958" class="st4" d="M367.4,295.7c1.9,0,3.7-0.7,5-2.1c1.3-1.3,2.1-3.1,2.1-5s-0.7-3.7-2.1-5
									c-1.3-1.3-3.1-2.1-5-2.1s-3.7,0.7-5,2.1c-1.3,1.3-2.1,3.1-2.1,5s0.7,3.7,2.1,5C363.8,295,365.5,295.7,367.4,295.7z"/>
							</g>
						</g>
					</g>
				</g>
				<g>
					<g>
						<defs>
							<rect id="SVGID_41_" x="292.6" y="263.6" width="167.4" height="166.3"/>
						</defs>
						<clipPath id="SVGID_42_">
							<use xlink:href="#SVGID_41_"  style="overflow:visible;"/>
						</clipPath>
						<g class="st30">
							<g>
								<path id="C0_0_0d85006958_1_" class="st6" d="M431.4,375.3c1.9,0,3.7-0.7,5-2.1c1.3-1.3,2.1-3.1,2.1-5s-0.7-3.7-2.1-5
									c-1.3-1.3-3.1-2.1-5-2.1s-3.7,0.7-5,2.1c-1.3,1.3-2.1,3.1-2.1,5s0.7,3.7,2.1,5C427.7,374.5,429.5,375.3,431.4,375.3z"/>
							</g>
						</g>
					</g>
				</g>
				<g>
					<g>
						<defs>
							<rect id="SVGID_43_" x="292.6" y="263.6" width="167.4" height="166.3"/>
						</defs>
						<clipPath id="SVGID_44_">
							<use xlink:href="#SVGID_43_"  style="overflow:visible;"/>
						</clipPath>
						<g class="st31">
							<g>
								<path id="C0_0_0d85006958_2_" class="st8" d="M330.1,390.6c1.9,0,3.7-0.7,5-2.1c1.3-1.3,2.1-3.1,2.1-5s-0.7-3.7-2.1-5
									c-1.3-1.3-3.1-2.1-5-2.1c-1.9,0-3.7,0.7-5,2.1c-1.3,1.3-2.1,3.1-2.1,5s0.7,3.7,2.1,5C326.4,389.8,328.2,390.6,330.1,390.6z"
									/>
							</g>
						</g>
					</g>
				</g>
			</g>
			<g id="matplotlib.axis_1_3_">
				<g id="xtick_1_3_">
					<g id="line2d_1_3_">
						<g>
							<g>
								<path id="m3311588b84" class="st11" d="M292.6,429.9v-2"/>
							</g>
						</g>
					</g>
					<g id="text_1_3_">
						<g transform="translate(19.628906 203.338437)scale(0.1 -0.1)">
							<g>
								<path id="DejaVuSans-2212_15_" d="M2666.7-2341.7h62.6v-8.3h-62.6V-2341.7z"/>
							</g>
							<g>
								<path id="DejaVuSans-32_15_" d="M2759.1-2368.9h34.4v-8.3h-46.3v8.3c3.7,3.9,8.8,9.1,15.3,15.6s10.5,10.7,12.2,12.6
									c3.2,3.5,5.4,6.5,6.6,9c1.3,2.5,1.9,4.9,1.9,7.2c0,3.9-1.4,7-4.1,9.5c-2.7,2.4-6.3,3.7-10.6,3.7c-3.1,0-6.4-0.5-9.8-1.6
									c-3.4-1.1-7.1-2.7-11-4.9v10c4,1.6,7.7,2.8,11.1,3.6c3.5,0.8,6.6,1.2,9.5,1.2c7.6,0,13.6-1.9,18.1-5.7s6.7-8.8,6.7-15.1
									c0-3-0.6-5.8-1.7-8.5c-1.1-2.7-3.2-5.8-6.1-9.5c-0.8-0.9-3.4-3.7-7.8-8.2C2773.2-2354.5,2767-2360.8,2759.1-2368.9z"/>
							</g>
						</g>
					</g>
				</g>
				<g id="xtick_2_3_">
					<g id="line2d_2_3_">
						<g>
							<g>
								<path id="m3311588b84_1_" class="st11" d="M334.4,429.9v-2"/>
							</g>
						</g>
					</g>
					<g id="text_2_3_">
						<g transform="translate(61.478906 203.338437)scale(0.1 -0.1)">
							<g>
								<path id="DejaVuSans-2212_14_" d="M2666.7-2341.7h62.6v-8.3h-62.6V-2341.7z"/>
							</g>
							<g>
								<path id="DejaVuSans-31_15_" d="M2752.3-2368.9h16.1v55.6l-17.5-3.5v9l17.4,3.5h9.9v-64.6h16.1v-8.3h-42V-2368.9z"/>
							</g>
						</g>
					</g>
				</g>
				<g id="xtick_3_3_">
					<g id="line2d_3_3_">
						<g>
							<g>
								<path id="m3311588b84_2_" class="st11" d="M376.3,429.9v-2"/>
							</g>
						</g>
					</g>
					<g id="text_3_3_">
						<g transform="translate(107.51875 203.338437)scale(0.1 -0.1)">
							<g>
								<path id="DejaVuSans-30_7_" d="M2687.9-2310.8c-5.1,0-8.9-2.5-11.5-7.5s-3.8-12.5-3.8-22.5s1.3-17.5,3.8-22.5
									c2.6-5,6.4-7.5,11.5-7.5s8.9,2.5,11.5,7.5s3.8,12.5,3.8,22.5s-1.3,17.5-3.8,22.5C2696.8-2313.3,2693-2310.8,2687.9-2310.8z
									 M2687.9-2303c8.2,0,14.4-3.2,18.7-9.7s6.5-15.8,6.5-28.1c0-12.3-2.2-21.6-6.5-28.1s-10.5-9.7-18.7-9.7s-14.4,3.2-18.7,9.7
									s-6.5,15.8-6.5,28.1c0,12.3,2.2,21.7,6.5,28.1C2673.5-2306.2,2679.7-2303,2687.9-2303z"/>
							</g>
						</g>
					</g>
				</g>
				<g id="xtick_4_3_">
					<g id="line2d_4_3_">
						<g>
							<g>
								<path id="m3311588b84_3_" class="st11" d="M418.2,429.9v-2"/>
							</g>
						</g>
					</g>
					<g id="text_4_3_">
						<g transform="translate(149.36875 203.338437)scale(0.1 -0.1)">
							<g>
								<path id="DejaVuSans-31_14_" d="M2668.5-2368.9h16.1v55.6l-17.5-3.5v9l17.4,3.5h9.9v-64.6h16.1v-8.3h-42
									C2668.5-2377.2,2668.5-2368.9,2668.5-2368.9z"/>
							</g>
						</g>
					</g>
				</g>
				<g id="xtick_5_3_">
					<g id="line2d_5_3_">
						<g>
							<g>
								<path id="m3311588b84_4_" class="st11" d="M460,429.9v-2"/>
							</g>
						</g>
					</g>
					<g id="text_5_3_">
						<g transform="translate(191.21875 203.338437)scale(0.1 -0.1)">
							<g>
								<path id="DejaVuSans-32_14_" d="M2675.3-2368.9h34.4v-8.3h-46.3v8.3c3.7,3.9,8.8,9.1,15.3,15.6s10.5,10.7,12.2,12.6
									c3.2,3.5,5.4,6.5,6.6,9c1.3,2.5,1.9,4.9,1.9,7.2c0,3.9-1.4,7-4.1,9.5c-2.7,2.4-6.3,3.7-10.6,3.7c-3.1,0-6.4-0.5-9.8-1.6
									c-3.4-1.1-7.1-2.7-11-4.9v10c4,1.6,7.7,2.8,11.1,3.6c3.5,0.8,6.6,1.2,9.5,1.2c7.6,0,13.6-1.9,18.1-5.7s6.7-8.8,6.7-15.1
									c0-3-0.6-5.8-1.7-8.5c-1.1-2.7-3.2-5.8-6.1-9.5c-0.8-0.9-3.4-3.7-7.8-8.2C2689.4-2354.5,2683.2-2360.8,2675.3-2368.9z"/>
							</g>
						</g>
					</g>
				</g>
			</g>
			<g id="matplotlib.axis_2_3_">
				<g id="ytick_1_3_">
					<g id="line2d_6_3_">
						<g>
							<g>
								<path id="m9733c59703" class="st11" d="M292.6,429.9h2"/>
							</g>
						</g>
					</g>
					<g id="text_6_3_">
						<g transform="translate(8.757812 196.039219)scale(0.1 -0.1)">
							<g>
								<path id="DejaVuSans-2212_13_" d="M2666.7-2341.7h62.6v-8.3h-62.6V-2341.7z"/>
							</g>
							<g>
								<path id="DejaVuSans-32_13_" d="M2759.1-2368.9h34.4v-8.3h-46.3v8.3c3.7,3.9,8.8,9.1,15.3,15.6s10.5,10.7,12.2,12.6
									c3.2,3.5,5.4,6.5,6.6,9c1.3,2.5,1.9,4.9,1.9,7.2c0,3.9-1.4,7-4.1,9.5c-2.7,2.4-6.3,3.7-10.6,3.7c-3.1,0-6.4-0.5-9.8-1.6
									c-3.4-1.1-7.1-2.7-11-4.9v10c4,1.6,7.7,2.8,11.1,3.6c3.5,0.8,6.6,1.2,9.5,1.2c7.6,0,13.6-1.9,18.1-5.7s6.7-8.8,6.7-15.1
									c0-3-0.6-5.8-1.7-8.5c-1.1-2.7-3.2-5.8-6.1-9.5c-0.8-0.9-3.4-3.7-7.8-8.2C2773.2-2354.5,2767-2360.8,2759.1-2368.9z"/>
							</g>
						</g>
					</g>
				</g>
				<g id="ytick_2_3_">
					<g id="line2d_7_3_">
						<g>
							<g>
								<path id="m9733c59703_1_" class="st11" d="M292.6,388.4h2"/>
							</g>
						</g>
					</g>
					<g id="text_7_3_">
						<g transform="translate(8.757812 154.459219)scale(0.1 -0.1)">
							<g>
								<path id="DejaVuSans-2212_12_" d="M2666.7-2341.7h62.6v-8.3h-62.6V-2341.7z"/>
							</g>
							<g>
								<path id="DejaVuSans-31_13_" d="M2752.3-2368.9h16.1v55.6l-17.5-3.5v9l17.4,3.5h9.9v-64.6h16.1v-8.3h-42V-2368.9z"/>
							</g>
						</g>
					</g>
				</g>
				<g id="ytick_3_3_">
					<g id="line2d_8_3_">
						<g>
							<g>
								<path id="m9733c59703_2_" class="st11" d="M292.6,346.8h2"/>
							</g>
						</g>
					</g>
					<g id="text_8_3_">
						<g transform="translate(17.1375 112.879219)scale(0.1 -0.1)">
							<g>
								<path id="DejaVuSans-30_6_" d="M2687.9-2310.8c-5.1,0-8.9-2.5-11.5-7.5s-3.8-12.5-3.8-22.5s1.3-17.5,3.8-22.5
									c2.6-5,6.4-7.5,11.5-7.5s8.9,2.5,11.5,7.5s3.8,12.5,3.8,22.5s-1.3,17.5-3.8,22.5C2696.8-2313.3,2693-2310.8,2687.9-2310.8z
									 M2687.9-2303c8.2,0,14.4-3.2,18.7-9.7s6.5-15.8,6.5-28.1c0-12.3-2.2-21.6-6.5-28.1s-10.5-9.7-18.7-9.7s-14.4,3.2-18.7,9.7
									s-6.5,15.8-6.5,28.1c0,12.3,2.2,21.7,6.5,28.1C2673.5-2306.2,2679.7-2303,2687.9-2303z"/>
							</g>
						</g>
					</g>
				</g>
				<g id="ytick_4_3_">
					<g id="line2d_9_3_">
						<g>
							<g>
								<path id="m9733c59703_3_" class="st11" d="M292.6,305.2h2"/>
							</g>
						</g>
					</g>
					<g id="text_9_3_">
						<g transform="translate(17.1375 71.299219)scale(0.1 -0.1)">
							<g>
								<path id="DejaVuSans-31_12_" d="M2668.5-2368.9h16.1v55.6l-17.5-3.5v9l17.4,3.5h9.9v-64.6h16.1v-8.3h-42
									C2668.5-2377.2,2668.5-2368.9,2668.5-2368.9z"/>
							</g>
						</g>
					</g>
				</g>
				<g id="ytick_5_3_">
					<g id="line2d_10_3_">
						<g>
							<g>
								<path id="m9733c59703_4_" class="st11" d="M292.6,263.6h2"/>
							</g>
						</g>
					</g>
					<g id="text_10_3_">
						<g transform="translate(17.1375 29.719219)scale(0.1 -0.1)">
							<g>
								<path id="DejaVuSans-32_12_" d="M2675.3-2368.9h34.4v-8.3h-46.3v8.3c3.7,3.9,8.8,9.1,15.3,15.6s10.5,10.7,12.2,12.6
									c3.2,3.5,5.4,6.5,6.6,9c1.3,2.5,1.9,4.9,1.9,7.2c0,3.9-1.4,7-4.1,9.5c-2.7,2.4-6.3,3.7-10.6,3.7c-3.1,0-6.4-0.5-9.8-1.6
									c-3.4-1.1-7.1-2.7-11-4.9v10c4,1.6,7.7,2.8,11.1,3.6c3.5,0.8,6.6,1.2,9.5,1.2c7.6,0,13.6-1.9,18.1-5.7s6.7-8.8,6.7-15.1
									c0-3-0.6-5.8-1.7-8.5c-1.1-2.7-3.2-5.8-6.1-9.5c-0.8-0.9-3.4-3.7-7.8-8.2C2689.4-2354.5,2683.2-2360.8,2675.3-2368.9z"/>
							</g>
						</g>
					</g>
				</g>
			</g>
			<g id="patch_3_3_">
				<path class="st12" d="M292.6,429.9V263.6"/>
			</g>
			<g id="patch_4_3_">
				<path class="st12" d="M460,429.9V263.6"/>
			</g>
			<g id="patch_5_3_">
				<path class="st12" d="M292.6,429.9H460"/>
			</g>
			<g id="patch_6_3_">
				<path class="st12" d="M292.6,263.6H460"/>
			</g>
			<g id="text_11_3_">
				<g transform="translate(72.489505 52.493054)scale(0.06 -0.06)">
					<g>
						<path id="ArialMT-4e_5_" d="M4434.4-3961.9v71.6h9.7l37.6-56.2v56.2h9.1v-71.6h-9.7l-37.6,56.3v-56.3H4434.4z"/>
					</g>
					<g>
						<path id="ArialMT-6f_1_" d="M4502.3-3936c0,9.6,2.7,16.7,8,21.3c4.5,3.9,9.9,5.8,16.4,5.8c7.1,0,12.9-2.3,17.5-7
							c4.5-4.7,6.8-11.1,6.8-19.4c0-6.7-1-11.9-3-15.8c-2-3.8-4.9-6.8-8.8-8.9c-3.8-2.1-8-3.2-12.5-3.2c-7.3,0-13.1,2.3-17.6,7
							C4504.6-3951.4,4502.3-3944.7,4502.3-3936z M4511.4-3936c0-6.6,1.4-11.6,4.3-14.9s6.5-5,10.9-5c4.4,0,8,1.7,10.9,5
							c2.9,3.3,4.3,8.4,4.3,15.2c0,6.4-1.5,11.3-4.4,14.6s-6.5,5-10.9,5c-4.4,0-8-1.6-10.9-4.9
							C4512.8-3924.4,4511.4-3929.3,4511.4-3936z"/>
					</g>
					<g>
						<path id="ArialMT-72_1_" d="M4561.1-3961.9v51.9h7.9v-7.9c2,3.7,3.9,6.1,5.6,7.3c1.7,1.2,3.6,1.8,5.6,1.8c3,0,6-0.9,9-2.8
							l-3-8.2c-2.1,1.3-4.3,1.9-6.4,1.9c-1.9,0-3.7-0.6-5.2-1.7c-1.5-1.1-2.6-2.8-3.3-4.8c-1-3.1-1.5-6.5-1.5-10.2v-27.3H4561.1z"/>
					</g>
					<g>
						<path id="ArialMT-6d_1_" d="M4594.5-3961.9v51.9h7.9v-7.3c1.6,2.5,3.8,4.6,6.5,6.1c2.7,1.6,5.8,2.3,9.2,2.3
							c3.8,0,7-0.8,9.5-2.4c2.5-1.6,4.2-3.8,5.2-6.7c4.1,6.1,9.4,9.1,16,9.1c5.1,0,9.1-1.4,11.9-4.3c2.8-2.8,4.2-7.2,4.2-13.2v-35.5
							h-8.8v32.7c0,3.5-0.3,6-0.9,7.6c-0.6,1.6-1.6,2.8-3.1,3.7s-3.2,1.4-5.3,1.4c-3.6,0-6.7-1.2-9.1-3.6c-2.4-2.4-3.6-6.3-3.6-11.6
							v-30.2h-8.8v33.7c0,3.9-0.7,6.8-2.2,8.8c-1.4,2-3.8,2.9-7,2.9c-2.5,0-4.8-0.7-6.9-2c-2.1-1.3-3.6-3.2-4.6-5.7
							c-0.9-2.5-1.4-6.1-1.4-10.8v-26.9H4594.5z"/>
					</g>
					<g>
						<path id="ArialMT-61_1_" d="M4711.7-3955.5c-3.3-2.8-6.4-4.7-9.4-5.9c-3-1.1-6.2-1.7-9.7-1.7c-5.7,0-10.1,1.4-13.1,4.2
							s-4.7,6.3-4.7,10.7c0,2.5,0.6,4.9,1.7,7c1.2,2.1,2.7,3.8,4.5,5.1c1.8,1.3,4,2.2,6.3,2.9c1.7,0.5,4.3,0.9,7.8,1.3
							c7.1,0.8,12.3,1.8,15.7,3c0,1.2,0,2,0,2.3c0,3.6-0.8,6.1-2.5,7.6c-2.2,2-5.6,3-10,3c-4.1,0-7.2-0.7-9.2-2.2s-3.4-4-4.4-7.7
							l-8.6,1.2c0.8,3.7,2.1,6.6,3.9,8.9c1.8,2.3,4.4,4,7.8,5.2s7.3,1.8,11.8,1.8c4.4,0,8-0.5,10.8-1.6c2.8-1,4.8-2.4,6.1-3.9
							c1.3-1.6,2.2-3.6,2.7-6c0.3-1.5,0.4-4.2,0.4-8.1v-11.8c0-8.2,0.2-13.3,0.6-15.5s1.1-4.2,2.2-6.2h-9.2
							C4712.5-3960.1,4711.9-3957.9,4711.7-3955.5z M4710.9-3935.9c-3.2-1.3-8-2.4-14.4-3.3c-3.6-0.5-6.2-1.1-7.7-1.8
							c-1.5-0.6-2.6-1.6-3.5-2.8c-0.8-1.2-1.2-2.6-1.2-4.2c0-2.3,0.9-4.3,2.7-5.9s4.4-2.3,7.8-2.3c3.4,0,6.4,0.7,9,2.2
							c2.6,1.5,4.6,3.5,5.8,6.1c0.9,2,1.4,4.9,1.4,8.8v3.2H4710.9z"/>
					</g>
					<g>
						<path id="ArialMT-6c_1_" d="M4733.2-3961.9v71.6h8.8v-71.6H4733.2z"/>
					</g>
				</g>
			</g>
			<g id="text_12_3_">
				<g transform="translate(147.4784 132.063304)scale(0.06 -0.06)">
					<g>
						<path id="ArialMT-45_1_" d="M4434.7-3961.9v71.6h51.8v-8.4h-42.3v-22h39.6v-8.4h-39.6v-24.3h43.9v-8.5H4434.7z"/>
					</g>
					<g>
						<path id="ArialMT-4e_4_" d="M4501.1-3961.9v71.6h9.7l37.6-56.2v56.2h9.1v-71.6h-9.7l-37.6,56.3v-56.3H4501.1z"/>
					</g>
				</g>
			</g>
			<g id="text_13_3_">
				<g transform="translate(47.123036 147.336926)scale(0.06 -0.06)">
					<g>
						<path id="ArialMT-4c_1_" d="M4434.1-3961.9v71.6h9.5v-63.1h35.2v-8.5H4434.1z"/>
					</g>
					<g>
						<path id="ArialMT-41_5_" d="M4482.3-3961.9l27.5,71.6h10.2l29.3-71.6h-10.8l-8.4,21.7h-29.9l-7.9-21.7H4482.3z M4502.9-3932.5
							h24.3l-7.5,19.8c-2.3,6-4,11-5.1,14.8c-0.9-4.6-2.2-9.2-3.9-13.7L4502.9-3932.5z"/>
					</g>
				</g>
			</g>
			<g id="text_14_3_">
				<g transform="translate(86.15 19.92)scale(0.08 -0.08)">
					<g>
						<path id="DejaVuSans-45_1_" d="M3329.9-2898.5h46.1v-8.3h-36.2v-21.6h34.7v-8.3h-34.7v-26.4h37.1v-8.3h-47
							C3329.9-2971.4,3329.9-2898.5,3329.9-2898.5z"/>
					</g>
					<g>
						<path id="DejaVuSans-4e_1_" d="M3393.1-2898.5h13.3l32.3-61v61h9.6v-72.9H3435l-32.3,61v-61h-9.6V-2898.5z"/>
					</g>
					<g>
						<path id="DejaVuSans-53_3_" d="M3511.6-2900.9v-9.6c-3.7,1.8-7.3,3.1-10.6,4c-3.3,0.9-6.5,1.3-9.6,1.3c-5.4,0-9.5-1-12.4-3.1
							c-2.9-2.1-4.4-5-4.4-8.9c0-3.2,1-5.7,2.9-7.3c1.9-1.6,5.6-3,11-4l6-1.2c7.4-1.4,12.8-3.9,16.3-7.4s5.2-8.3,5.2-14.2
							c0-7.1-2.4-12.4-7.1-16.1c-4.7-3.6-11.7-5.5-20.8-5.5c-3.4,0-7.1,0.4-11,1.2s-7.9,1.9-12.1,3.5v10.2c4-2.2,7.9-3.9,11.8-5.1
							c3.8-1.1,7.6-1.7,11.3-1.7c5.6,0,10,1.1,13,3.3c3.1,2.2,4.6,5.4,4.6,9.5c0,3.6-1.1,6.4-3.3,8.4s-5.8,3.5-10.8,4.5l-6,1.2
							c-7.4,1.5-12.7,3.8-16,6.9c-3.3,3.1-4.9,7.5-4.9,13c0,6.4,2.3,11.5,6.8,15.2c4.5,3.7,10.8,5.6,18.8,5.6
							c3.4,0,6.9-0.3,10.5-0.9C3504.3-2898.7,3507.9-2899.7,3511.6-2900.9z"/>
					</g>
					<g>
						<path id="DejaVuSans-4f_1_" d="M3561-2905.2c-7.2,0-12.9-2.7-17.1-8s-6.3-12.6-6.3-21.8c0-9.2,2.1-16.4,6.3-21.8
							c4.2-5.3,9.9-8,17.1-8c7.2,0,12.8,2.7,17,8c4.2,5.3,6.3,12.6,6.3,21.8c0,9.2-2.1,16.5-6.3,21.8
							C3573.8-2907.9,3568.1-2905.2,3561-2905.2z M3561-2897.2c10.2,0,18.4-3.4,24.5-10.3c6.1-6.9,9.2-16,9.2-27.6
							c0-11.5-3.1-20.7-9.2-27.5c-6.1-6.8-14.3-10.2-24.5-10.2c-10.2,0-18.4,3.4-24.6,10.2c-6.1,6.8-9.2,16-9.2,27.5
							s3.1,20.7,9.2,27.6C3542.5-2900.6,3550.7-2897.2,3561-2897.2z"/>
					</g>
					<g>
						<path id="DejaVuSans-20_1_" d="M3600.3-2971.4"/>
					</g>
					<g>
						<path id="DejaVuSans-70_1_" d="M3650.2-2963.2v-29h-9v75.5h9v-8.3c1.9,3.2,4.3,5.7,7.2,7.2c2.9,1.6,6.3,2.4,10.3,2.4
							c6.6,0,12-2.6,16.2-7.9c4.2-5.3,6.2-12.2,6.2-20.8c0-8.6-2.1-15.5-6.2-20.8s-9.5-7.9-16.2-7.9c-4,0-7.4,0.8-10.3,2.4
							C3654.5-2968.9,3652.1-2966.4,3650.2-2963.2z M3680.8-2944.1c0,6.6-1.4,11.8-4.1,15.5c-2.7,3.7-6.5,5.6-11.2,5.6
							c-4.8,0-8.5-1.9-11.2-5.6s-4.1-8.9-4.1-15.5c0-6.6,1.4-11.8,4.1-15.5s6.5-5.6,11.2-5.6c4.8,0,8.5,1.9,11.2,5.6
							C3679.4-2955.9,3680.8-2950.7,3680.8-2944.1z"/>
					</g>
					<g>
						<path id="DejaVuSans-68_1_" d="M3750.4-2938.4v-33h-9v32.7c0,5.2-1,9-3,11.6c-2,2.6-5,3.9-9.1,3.9c-4.9,0-8.7-1.5-11.5-4.6
							c-2.8-3.1-4.2-7.3-4.2-12.6v-31h-9v76h9v-29.8c2.2,3.3,4.7,5.7,7.6,7.4c2.9,1.6,6.3,2.4,10.1,2.4c6.3,0,11-1.9,14.2-5.8
							C3748.8-2925.1,3750.4-2930.8,3750.4-2938.4z"/>
					</g>
					<g>
						<path id="DejaVuSans-61_3_" d="M3793.2-2943.9c-7.3,0-12.3-0.8-15.1-2.5s-4.2-4.5-4.2-8.5c0-3.2,1.1-5.7,3.2-7.6
							c2.1-1.9,5-2.8,8.6-2.8c5,0,9,1.8,12,5.3s4.5,8.2,4.5,14.1v2H3793.2z M3811.1-2940.2v-31.2h-9v8.3c-2-3.3-4.6-5.8-7.6-7.3
							s-6.8-2.4-11.2-2.4c-5.6,0-10,1.6-13.4,4.7c-3.3,3.1-5,7.4-5,12.6c0,6.1,2.1,10.8,6.2,13.9c4.1,3.1,10.3,4.7,18.4,4.7h12.6
							v0.9c0,4.1-1.4,7.3-4.1,9.6c-2.7,2.3-6.5,3.4-11.5,3.4c-3.1,0-6.2-0.4-9.1-1.1c-3-0.8-5.8-1.9-8.5-3.4v8.3
							c3.3,1.3,6.5,2.2,9.6,2.8c3.1,0.6,6.1,1,9,1c7.9,0,13.8-2.1,17.7-6.2C3809.2-2925.6,3811.1-2931.9,3811.1-2940.2z"/>
					</g>
					<g>
						<path id="DejaVuSans-73_3_" d="M3864.5-2918.3v-8.5c-2.5,1.3-5.2,2.3-7.9,2.9c-2.7,0.7-5.6,1-8.5,1c-4.5,0-7.8-0.7-10-2
							c-2.2-1.4-3.3-3.4-3.3-6.2c0-2.1,0.8-3.7,2.4-4.9c1.6-1.2,4.8-2.3,9.6-3.4l3.1-0.7c6.4-1.4,10.9-3.3,13.6-5.8s4-6,4-10.4
							c0-5.1-2-9.1-6-12.1s-9.5-4.4-16.6-4.4c-2.9,0-6,0.3-9.2,0.9c-3.2,0.6-6.5,1.4-10,2.6v9.3c3.3-1.7,6.6-3,9.8-3.9
							c3.2-0.9,6.4-1.3,9.6-1.3c4.2,0,7.5,0.7,9.8,2.2c2.3,1.4,3.4,3.5,3.4,6.1c0,2.4-0.8,4.3-2.5,5.6c-1.6,1.3-5.2,2.6-10.8,3.8
							l-3.1,0.7c-5.6,1.2-9.6,3-12.1,5.4s-3.7,5.8-3.7,10c0,5.1,1.8,9.1,5.5,11.9c3.6,2.8,8.8,4.2,15.5,4.2c3.3,0,6.4-0.2,9.4-0.7
							C3859.3-2916.6,3862-2917.3,3864.5-2918.3z"/>
					</g>
					<g>
						<path id="DejaVuSans-65_3_" d="M3928.5-2941.8v-4.4h-41.3c0.4-6.2,2.3-10.9,5.6-14.1c3.3-3.2,8-4.9,13.9-4.9
							c3.4,0,6.8,0.4,10,1.3c3.2,0.8,6.5,2.1,9.7,3.8v-8.5c-3.2-1.4-6.5-2.4-9.9-3.1c-3.4-0.7-6.8-1.1-10.3-1.1
							c-8.7,0-15.6,2.5-20.7,7.6c-5.1,5.1-7.6,12-7.6,20.6c0,8.9,2.4,16,7.2,21.3c4.8,5.3,11.4,7.9,19.6,7.9
							c7.4,0,13.2-2.4,17.5-7.1C3926.4-2927.2,3928.5-2933.7,3928.5-2941.8z M3919.5-2939.2c-0.1,4.9-1.4,8.8-4.1,11.8
							c-2.7,2.9-6.2,4.4-10.7,4.4c-5,0-9-1.4-12-4.2s-4.7-6.8-5.2-12H3919.5z"/>
					</g>
				</g>
			</g>
		</g>
	</g>
	<rect x="265.6" y="237.7" class="st13" width="18.9" height="17.3"/>
	<text transform="matrix(1 0 0 1 265.6066 249.7299)" class="st14 st15">(d)</text>
</g>
</svg>
